<mxfile host="Electron" modified="2024-01-26T08:54:24.919Z" agent="Mozilla/5.0 (Windows NT 10.0; Win64; x64) AppleWebKit/537.36 (KHTML, like Gecko) draw.io/21.2.8 Chrome/112.0.5615.165 Electron/24.2.0 Safari/537.36" etag="IEl2fdeGgulrPevmISDK" version="21.2.8" type="device">
  <diagram name="Page-1" id="2XWkQP5S-hDbL94sL5Vg">
    <mxGraphModel dx="1418" dy="820" grid="1" gridSize="10" guides="1" tooltips="1" connect="1" arrows="1" fold="1" page="1" pageScale="1" pageWidth="3300" pageHeight="4681" background="#999999" math="0" shadow="0">
      <root>
        <mxCell id="0" />
        <mxCell id="1" parent="0" />
        <mxCell id="GU7Erpjbltd78eeC9pFH-1" value="" style="shape=image;verticalLabelPosition=bottom;labelBackgroundColor=default;verticalAlign=top;aspect=fixed;imageAspect=0;image=data:image/png,iVBORw0KGgoAAAANSUhEUgAAA4QAAALYCAYAAAAkdTwDAAAAAXNSR0IArs4c6QAAAARnQU1BAACxjwv8YQUAAAAJcEhZcwAADsMAAA7DAcdvqGQAAKTXSURBVHhe7f0NdFTXfe//fzFOry3bxWQGRuAgZNcVgkiyDbbrIiFELqnzCJQrs+Tc3v7dutTAcuM2uV0r8aL/kFVfJ7/VJr8kP5bBi5Km6S81FxNdIHad1DQ8SdS1jUlAATF1bBnbgGDGmFtjnP9N4//e5+wzOjNzzpk5Z/Q45/1aS7bmaM6cfR5m2J/Z++w9qeWWW9+XiOrq6uXUqQHzCAAAAAAwkVxh/g8AAAAAiBkCIQAAAADEFIEQAAAAAGKKQAgAAAAAMUUgBAAAAICYIhACAAAAQEwRCAEAAAAgpgiEAAAAABBTBEIAAAAAiCkCIQAAAADEFIEQAAAAAGKKQAgAAAAAMUUgBAAAAICYIhACAAAAQEwRCAEAAAAgpgiEAAAAABBTBEIAAAAAiCkCIQAAAADEFIEQAAAAAGKKQAgAAAAAMUUgBAAAAICYIhACAAAAQEwRCAEAAAAgpgiEAAAAABBTBEIAAAAAiCkCIQAAAADEFIEQAAAAAGKKQAgAAAAAMUUgBAAAAICYIhACAAAAQEwRCAEAAAAgpgiEAAAAABBTBEIAAAAAiCkCIQAAAADEFIEQAAAAAGKKQAgAAAAAMTWp5ZZb3ze/h1ZXVy+nTg2YRwCKJaX9njtkxfwbZeYMs0helcfue0YOmEcAAADAWKGFMMi8yXLXf7/S+mmYZ5blmSQN5u93rZhklsXQ9CvkFnMcblkU4+Pgof2hVbLuk+4wCAAAAIwfBMIyfbDBI+jMu0I+aH6Ns5o5k+Rq8/vVvzlJaszvSMoNtfZvh7dsl677HjM/tA4CAABgfCAQluvmK1T1Pl/SKyTGziRJqBAob/1K3vzX91VyVo+nmz/BduYlebI3Yx4AAAAA4weBsAxvvaxvs5wkH8zrNqoe36z+p/72lr0gnqar4/BBkcv/9r68fvJ9uayPyxyCMgAAADARTE7V1m4wv4c2Zcr1cvHi2+ZRFZp2hXxIt36psPPvH1JBZ9L78ka/+du8yfKb6m9vqb+J+tvVb7n+5lIz7wq58dPquf9ZvdZC/WO3oP27eu7/Mc/J0ffirZ0sNzaqEHrk/eK/q7A16w+vlHn/eZJMUkH0f18yi3MmSXKR2tZS9RqF21Op9f8UPd9FBbtZH1XrfUr9WOtdIYnGSfIfb74v7watN1vtnzoO/370V5IdUNeEWu/Xa/zKb6tRZVyw6oqhffDa9nR1zD2PUcRy+qz3a78Q+d/nzXOG3bvywaY75I5rz8ief35DqvidAgAAgAmKFsKyvC+XdTOgq9toTUL/Vy3PSu7+uXx2eGv5xBVWC9oQFR5vniwt/32yzBrWrpWTpOEPJ8vNv6Ve32t7vz9ZGnwGfNEB7S719xtuHroXULv6g5Pk5t8PHijG7jb7vrx1XD9S/39Z/S9Et1Hfbaufd+1fc6KVU52HFf7r3fAJdVw8BwwaRjOmSp35FQAAABhPCIRlyuqWQBUu7G6jzn1z70vW59awmkVXyA1WMFMh6R//Q57761/aP9/9D3nT6mOqwogKKYX3JUalt2cFT1Wml79rtmX9/Icc/UcdaPPDUM48FRZViLTK+a/qubn1fmmvp/5y9W9d4RNenW6zvxLnMGTS5jiV7DaqyrPQbNsqs+sY6TIf0q/jErWc89R5UEHwssc2Xtb3PCofVKFwuM4DAAAAMJEQCMtwdULk3YO/su4VtEYbNffNvfXcr4pasSzTr5DfNOHlTRVC0sdd4ebc+/L6t12hcJinabj8byqcnTMPLO/Lu8f/Q3767V/KTw8WhCy1/Vl32dvXoTWt/u7eH2s9FbZ8A54ZZfUtKwQax+3jVM5oox/UQU2Fu+fU8cio4zJElSNvHyoop/rbURWQf+qxjcxBFQp1i6Zy9bC21mpJqb/n47LiNvXrmQtyyl4IAAAAjCsEwrINdYdMWtMsqMe6m2TSo+XNWfbyr+T1vGDjUKHwOTucDNc0De9aA7rYrWS6a2hNOQHHBFs9QugbVpdPDwEBL7+7qGPoOJXsNvqyCnJFIdVDheXMhUv1OkkVYhtWTJZb/tCeY/Jm3cKpguTVw9VEOPsu+fp31sm276ySr+r5B8+8Krs2PycD5s8AAADAeEIgDMHqDvnBK6z79NzdJAvZ9xeKdX+hr4wd4HRwGo5AKOd+JT/9rgpFb6nw9Fv6nkEzYb4KPr4B0Qmuap9azMTyxT+TfeZaVNsxYermgnWckFWq22jg8XGrqJzqfOgQ+IfqOb8/WW7W93TqewnVcR8Np9XPm/avAAAAwLhDIAzDtEJped0kxwsVCtPf/qV1n6K+P+6tt1ToVMHHCYi3rBim8KmZ7qJBxsUk9freQ2dgH3U89P2H+l7Co+Z+QqfL6LB57Tn5nDX5/HZ57OkLMnPGjbJuzV1Sb/4MAAAAjCdMOxHEmXZCBQlnSolJkyfJ1TXvy7l/MvexeTznA7OvkNSHJskH3vOeisJipmuw1nOmaLhmktTeota7/L4M+kw7MeW2K+TXrxb59596TTthqOXvnnpfsuo1Bg/9St54+X2pmaXWu0H9TFbLnBvaJk2ShN7ey/o+PvU8/Vy/n4LyJFsnq5Bl3yN5/NnC578vkxrVtlQI+6XH9BjO8fnlm66yBIlczknS8P+5wure++Y//kqO/9OvJKu2p6encKbgqFHl1GFR33uZHdbpJ96V1473ybnZd8gdv/mepHe+LK+ZvwAAAADjBS2EIemBSH6qQolfd1HNuZ9PT1PhNzqnM0iKntA9N0DKueBupEMjlxarmRfQGqdeN+3cs2i6s1rU8rd0k6dvOf2Y7qIqzGZ97pHMjcpacrTRMkQup6HL6R7YJ8d0RQUAAABiikA4Es79St60uiLaU0s0qLCWoydI/8PJuSkp3iwYVMWa71Ctd7O7e6deZ4Uz7YIHParpJ9Tf//tku1uoer6bftzwCRNA8+7bcwa3MeUsutfQnuj+FvW6eWOumO6ieWG2QG6Qm2HpNhqxnI4PquOj1zEP9fNr5tkDy9xg3e8IAAAAxNOklltu9Wo6KUtdXb2cOlXF4yeq0HCXDlK6q+JOn8Pk+xx38PNid7csGoXUeT0PeoqGNxOT5eabi9fVA6d86C5zr5yft34lR79dPFWGnvDdN2xqb6ntPTW0veQKe+CYt/7xl5L2G/VT7X+DNdCLR1nN9vT+lDXKqBG2nFrgOur5L/+bWIMEBe9LVEm59yurZLm8JF/4IiONAgAAYPyhhXDE6PkG9aTpeuRPs8jyvlxW4fHoX3uEQU3Pm2dNJG8eazq46Ln09Px7We8A9e5xe0AZe3v5z9GTsr/5j+p1PcKg9u5BFWZVaHvzZdNl1aHWsyaB/7a7rM7ooupvgQFK/d20kg5Lt1ElXDlteh2v46mPhzX/YbkjnQIAAABViBZCYMTQQggAAIDxjRZCYKTNmC/3tA7XzPcAAADA8KGFEBhB9ffcK1/95FTzyPGqPHbfM3LAPAIAAADGCi2EwAgaePIJ+cLTr8rpM2YBAAAAMI7QQggAAAAAMUULIQAAAADEFIEQAAAAAGKKQBhAd4kFAAAAgGpFIAQAAACAmCIQAgAAAEBMEQgBAAAAIKYIhAAAAAAQUwRCAAAAAIgpAiEAAAAAxNSklltufd/8HpqeluHUqQHzqPpU+/5NHLXyp/NXyx9cnZW//clj8o1LZjE8zZ32EVk7q1EWX50wS0QGLp+Uva8fkG+cP2uWFHKOsXru6ztl+aljZrnLNR+RXbe2StFkLJd7peulH8sJ87BI1PUAAAAw4mghBKrJtFWyraE1Lwxq9VfPkT9ITDOPPFwzT5aoMKjVz5orn7Z/BTzV33OvbPvOx6XdPAYAABMXgRCoGs3yrYY51m+6la+r9y/lFufnJ1tk/evnrb95unRc9l62fx14/YT8wP4136Ufy3L3a/bulP3mT4GirodxKim/PX+qyJkLcsosAQAAExeBEKgW10yT2fr/l3vlC6eO5XfFvHRWfqB+/J2Vb7xkBzbP7qJAzgflQzPU/86+JXSoBwBg4iMQApgYZt8lf/6VdbLtO+vk6/ckzUKMutbfkAXqf4dfTNuPAQDAhMagMgFiNajMNc3yp7MWyZJEIjf4h/9AJGYAEnEGBamVTzeulD9yr5vtlS/0Bw0YUitzp7XLV2clpT53v1tWrXdQrVfQulU0qEz47dkDreh768wC320NmVunwscsGRrIxusYZXd6lvfTde3yR8k5at/MImd7r6vnDuOgOHPrVqljqLZjHvtS5bxFldM2NICMl4HXt8jyU0GtiY5m+VbrClkcenCYaOu1P7RO1t1mHsgF2fWlJ+SJ18zDYZOUe7+ySpaf3SNd30xLfetdcs+n5ssC3SKmnD7zquzc/Iwc8N1uUpXzo7Litqky0yw5feQl2bnzOTnwoY/LttXXe5Zb35P31U/K0N9mN8ifr1mgtjvVfoLa7mM+261v/bh89lM3ykxTRn1sDj99WJ58Mu3Rgpe/f1Z577lDVnxSrW8/QZV3j3xL/W1oXVWWr7jKEkiV8z5VTvMIAACMf7QQxp4KB43r5Ke3rpA/cAUdzRqIpGG1fMtvLJKrk3KzCknfUuHikcJ1E62ybf5HZK55nMess61BByb34CfqNRIrZFvrOvnTa8yiQjVht6fDz1+YgVbMIksZ23LR4dDzGKmf/EBjyqdDmtf2bl0n36qrNcuGgwrU5jcMg9k3yx0qWJ2WD8q9D6mQtnooDGozZ9wo6758r9xr9c0tMPsu+fp3VqnQOhQGtZm3zbfW+fPbb1SP3pY3PUJd3Uwdtuy/WQO2fHlpfgDTZShaTwe1daqM7jCoTZUFn1wqX/3KXcXXhrN/p98aKq8rDGozb1sqn3W3wM7+oMwoKwwq3FcIAMCEQwthgFi0EE5bJT9VwUy3Bv7NyQOu+8x0K9dKFWx0YDsp63u3uwYaKWxhysrfprtzLYlzrZEu7cFN9qf/Uj6bN5aJaR3Sv6pt/m1eC6RpWVNh6rW89aJvz27l0/uQVX/rVn8z29KtfXNUwLNes3D/bM66+7MnZXFCvb4q7/qCYzT3mrN5LX657VnPVa+Z+5vTIqpeJ1NuC1xIzvQOEadzcMo+XlsIrS6ja+yAdvrp7fK5JzPmD8OoVbfi6eCmXZDDW56VJ3szdmuZ1Wqng5r6/YjTwuZQf/uO+pv+9cxL8tjm53KteVYLng5t+oH62xe++FxBy51ptRP1t6emWgHPaqXbmZYB6zWS0t4qckCVY4izPdMa+LzzXEWV815VzuWqnIe3PCZ/1WuWa2b/TqvgJirkzbRaHl9QZdWvrVs3daBVvxbtn8Ns13M/AADAREQLYdyd3y5dP/lLWf6SDi/uEHBWfnDqMVmf1b8n5Tf8WtF08Ol9LK9b6Qn1mvZ6qm56dX5r2Ny6RSYM6jCwvaA7qt7mdln+ky0FIdIlzPZUQPqqCYO622cuDGqXjsk3Xtoif2uNrDlH/iig1U6HQR2SbvE4Rn7dPwcyOjiaBxb1XFXO5S/pQVvcr4Gyvfac/NUXH5Ou+x4bmTCo1M+83v5FB577nlBhyoRB7bW0/NXml+S0/r32g3mtb+0PmTCog5QKSu6unQO9z8jntrxqP/AciMUM0iI3quB4vQpxKuzqLpu518gUhEFneyrMfUmVUXcNdW1Pl/MJU84ZM/PvtXT2b6Zu8VOhuuuLuhuq89pqOzvN/vnRrYX6/wwoAwBA1SAQYijUXFMrn572EflW4zrZNX+d/LT1L+QRq0dnQm6qsZ5RQAUt3QpmHrm9/K5JaHlq5e6kCWgnA1qGfEfDDLm9GtOdMnvQZzL7s/KN109av9Un53l3b9WyeqL28kLciWy/VVGun7VSvlXXLHPL6I6K8cPuunlBdm32af167S05Y37NmX2XrNCtajpEeraqDfEciMUJWSqkndlih9BgDfJb1r2UuvvqOmuQnaKfL8/P6wbqsPdPtxwGt7BaXUq9fMjuDsuAMgAAVA8CIawBV741/y/kp7eulkf0vXb6PrmCic2HxzS5yeqimZGf+7SsDae5V9utIwPvBsy/965pAdL3Q1oLigWuX0jPufeTXtl/OSGLZ+l7BtVxVcH6pypgExDHu6TcYDUUe9/n56f+Trs76OmXXvZtNbNb5i7IG2/Yj/OYkKW7weZ17/RjRvkMz9m/V+VffUKnsy9nTnv/vd26D9JnPwAAwIREIIw76/47M+DK5ZOy//Wdsv4nW6RL/eg56ZyumAhBhcLP6jn9rMng1TG9nJUBFbCdgLirUQVD81SMJ6br5pGf+4+S6dFl0mlVfOF5vxY3M5G7T9B0Qpb/+vmcbp/6/kDdfTboJ78V0OxfwMAvzr54B75ogRkAAIxvBMJYa5ZvWYOx6EFa7HvkPnvqmHWf3AnfbpvDIeCexBFQX+M3TKridCu9nJGXrQXDSB1DfU/kZ196TJarcH3LT3aqcKjKk1ghXx3WkUYxLEzLm293SaV9hd0VM1yXyaAgFj1kFd4fWJLTsuh7/1+pspQRmAEAwIRDIIQKQ/3yo7zBXRy18hvmt+FxTJ61WhwT8gdzfKak0K6pHZYWNOd+Pkks8plaolb+VI/6qQxkjoceldPL3GkBrX+XjslnnXsWg0LqNaYLb+tfyK6JEBwDutsGCrveCE9M77S8+XWX1CN02vMg6i6X1hKXqfKhD5lf8+iRO82AM0EDyoSYrmHg9NvW/2fOv9l3ypH61uLpSHIti75htkRZnNZRAABQVQiEUBXzVvmqvr/NPLSnSFglu/RUD8N8K+EPXu+1K8Vqm9vmr5I/neYOPGa7t66WbY3NZlkFLv1Y/sYJoHr+P/e29LQTuaksTsrfDMfIn3pU0wZ7bkOrW6gKtm5z9fyLZnqMoPsSP+2aQF8PTlPOPIlj47y8khul1XX9qP38dGCZo62nW+ecOQFnfvKj3nMBVsAZcGXBah04G1yBSoe6e3PTURzekj/x+qnTF6z/L1j9cWl3lUlPav/nXzHTOCieLY9RRu3s/bkc1v+fMd+aazBvm3rKCWv+xFVyT6tZaAR3B1WcFtKAeyEtty2Qe1XgdNjbVOUwjwEAwMRCIIy1Y7LpdfsmwXp9f5se/MT6MZPG6/n5TIvWsDGDrtih0J743t6me7tZ+dvXj1lPr9QP+p2pJRKy2L0tPcm8FbrUtn7iPXJpaGrfvpC2B5SxJ6F379tfqMfO/Iu98oWqmHrirPwo43H9qP18ZFZQoI+63kgy3SXPXJDTZ3TgXCpfzY3aaU82r3kN/DLw5GE7oBWM+mlNaq+nhnhaB0afewSdAWUCuqkWS8tfOdNYqFCYt80vL5Xlqqx6HsMn88pZumtqyRbS116WF6whVqfKchU487c5X36rIIACAICJgUAYcydOPSZd6ZMyYIUm4/LJ3D2FP3AvHy46FPbaA67kbVeFs4HsTunS8wwO2yikZ+UbL/2l2kcd1Mwiy0hsS8+JaA8oY2/PDj0OPfm/Pq6lJmPXrahOWQde7x7W8g036/rR59E8tuj9zAaPzBplPT1H3mEz58Ppp5+VJ4Z1YBPTXfLsYfncF7fLY0dUMLT/YDl95CV57Et+8x+qgPalPbJLrZOjgqWe2uELX3zGdL/0DmIlQ5if3mekS23zsNqOW66ceh5Ds8xWumtqyRZEycgT6tjk7adyWk9ur7ZZ1gipAABg3JnUcsut75vfQ6urq5dTpwI7F01o1b5/AIzZd8nXvzzfmqx9pCa9BwAAGI9oIQQQe6Xm3wMAAKhWBEIAsVe6uyQAAEB1IhACiDkmXAcAAPFFIAQQc+HnAgQAAKgWDCoTgEFlAAAAAFQzWggBAAAAIKYIhAAAAAAQUwRCAAAAAIgpAiEAAAAAxBSBEAAAAABiikAIAAAAADFFIAQAAACAmCIQAgAAAEBMEQgBAAAAIKYIhAAAAAAQUwRCAAAAAIgpAiEAAAAAxBSBEAAAAABiikAIAAAAADFFIAQAAACAmCIQAgAAAEBMEQgBAAAAIKYIhAAAAAAQUwRCAAAAAIgpAiEAAAAAxBSBEAAAAABiikAIAAAAADFFIAQAAACAmCIQAgAAAEBMEQgBAAAAIKYIhAAAAAAQUwRCAAAAAIgpAiEAAAAAxBSBEAAAAABiikAIAAAAADFFIAQAAACAmCIQAgAAAEBMEQgBAAAAIKYIhAAAAAAQUwRCAAAAAIgpAiEAAAAAxBSBEAAAAABiikAIAAAAADFFIAQAAACAmCIQogwt0rl+gzy8dqmkzBIAAAAAEx+BECWllrRLg2TkUPceGTTLAAAAAEx8BEIESy2VFa1JkfQB2UcaBAAAAKoKgRCBmha3SUL6Zff2o2ZJgOYueWAV3UoBAACAiYJACH8q4C1rEMn27pM+syhI09xGFR7P0a0UAAAAmCAIhPBRKx1tjSoN9sjOvWfNsiC1kkyop58/Zx4DAAAAGO8IhPDW3CELVcBL9/gMJJNaKp2rlkqT0z801SRzdCDMOOGxVpqWdElHc615DAAAAGC8mZyqrd1gfg9typTr5eLFt82j6lPt++evRTr/eJEkdOvg06/IJbM0z7U3ybwFbbKwrUMWtTdJqj4ps2pqRK6oldvbO+Xuj90uc67JyOsvPicDni8AAAAAYKzRQogiZU0zMbhHdmzaLLvTGfUgKQ2JpLU40dAoiURG0r3dsnXTNkYmBQAAAMYxAiHyhZpm4qz0bd8oW3f1m8dKuke2btkoO/YeZXAZAAAAYJwjECJPqGkmLC2yaLkefCYj2ax6mFA/JEEAAABgQiAQYkjIaSaskUjXrpSGrAqQmzbK4z39KhC2yaJm82cAAAAA4xqBEEbYaSZEmlatkYW6NXHTNjtAHtsmu9MiDW1MTg8AAABMBARCWFJLOoOnmSiUWiqtCVcYNPq2d0s60ShzSYQAAADAuDep5ZZb3ze/h1ZXVy+nTg2YR9Wn2vdvSIt0rl8pDeluebTsewcBAAAATHS0EGJomon9hEEAAAAgTgiEcRdqmgkAAAAA1YRAGHPhp5kAAAAAUC0IhHEWepoJAAAAANWEQBhb4aeZAAAAAFBdCIQxFXqaCQAAAABVh2knAsRn2gkAAAAAcUQLIQAAAADEFIEQAAAAAGKKQAgAAAAAMUUgBAAAAICYIhACAAAAQEwRCAEAAAAgpgiEAAAAABBTBEIAAAAAiCkCIQAAAADE1KSWW2593/weWl1dvZw6NWAeVZ9q378Jp7lLHl7eaB4MSe/aIDuOmQdlaFr1oCxrSEo23S2Pbz9qlg6v1JIH5f7WZOiyjZTxVp4htdKxqlMWqvMxpF92P7JN+swjAAAAjBxaCDHGaqVpSZc8sHaDPLze/nlg1VJpSpk/u6SS7tDg6Jf+MAEntVRaTfhIJKaLx2aGxbRpehsZyZyzH4+tWpnbOJ7K41BhcO2agjCoZDNy3vwKAACAkTU5VVu7wfwe2pQp18vFi2+bR9Wn2vdvrKWau+T3/vhjcltdUmpqzEKlJlEncxbUyoUDfeLOL5cGnpeDB/aZn36Z/OHbZdblful58RW5ZJ5T0qV35Tq9Xk1G0kf2yQsD75g/DKdamdeut3FKjjyTvw9j4ya5/WNzJZF9Sf5pX4hjNdKaPyWfuU2FwWy/7P7eRvn+M+bchjmfAAAAqAgthBgTVhfG5Y2SUL/rrptbt2yQRx/RP5tld29GLW2UZatarOd6my5Ja+VzMmgvKNNZ2bdJb2ej7Nh71iwbZqkmmaPLlj4+Pro9pqZbxzn8sRpZdotvRg51b5O+8VQwAACAGCEQYvSllsqKVjsM6Hva9H18g7lAcFb69m6Urbt6ZGvQ/X3N86RB/S99YmTuAazI9KQddM+Pk/6Z5ZRHnZMHrC67D0rHSPWjzWO6sWb75QRhEAAAYMwwqEyAWA0qk6qVpsWd1v11VmuSpirrh3r2yb5jXi1p5v6vbLc8agU3fS9gh7S22q1+mm7526nDnnlsM+upJ1UywIk9SIrIoS0bZV9QoPAZiEayKnBu2lNWi1kq1SJzF7fLHNexyaZ71L55rx88gMvQ/md7N8vjHq2UuivtijZ1HHMnQgXn3gNycG/hsXRTx39V/vnTZezdv0fOzys1oEyLdK5faQVsza9cw6vw+gEAAMBYoIUQVgB5YPUaa+TNXAbREo2ycPkaeWBJrVngYrpFWq1OVuuSWt8VBrVEw0pZUbhuc4cVhnQgO1jBaJe5QVtKJDrvgWjU5vv7ygiDOmSpMLV6pTXwSf6+tcn9Pq1p/gPKqOCVC8NeoUv/fYPdlda9MUlKQ+tKuX/tUu9BcJzj71HGZau7ZJE1oEzA4DtOl9JRZXf5HTetqAAAADHFoDIBYjGojAqDD6kAosd00S16T2z6n/JDM2hLevK1Ml8P+FJXL5NPPi8D7pE+brpT7lZB4/I19XK7bs2yBgbZId9/5ilr3Qu1t1uBsea9U3LwZ0PRq6mj01qefvbb8kLkLNAi7b87VxLpA/J912t7yR+IRv1cqLUC0htHnpLjgdu3W7CWztJHRndt/a7s3PFU7thcUMcmWVcnc+qvlHTeICg+A8ro0PZnd9uD2ajX2lHU6mpa6fTfe38oO3+kzoMzyMrJt2Ry/VyZlaiTay/sKyi3Wk+/rv5Vhezd3/t2bnCWtNrX2Y2Napv6bwGD71x6RX5RqwN+jd2q+/TPR35Ql+YlsqKs8wAAAICRRAthrKkwYbpT5u7lsx5pZ2Vw7zbZag3wkpQ58/Jb+pyWt0RC/b93szy6SQ8M4oScs9K3v0ey5tGQFmm0+iWGnCqikGnRitK65AxkUmr6hdSSzlxL5lY9AI0KcO5j06eOzeNbumV3d0G3Ua8BZXQYXN2mypyxurgWh0E9N6LusqlCtf677hrqftHBo7Kv2z6eiWT+ebDXU1SQe3TTnrzBWQaPqTLu6rfPQ4kBZfq2b7QG9cm/BkZCraSa1fGwrrsKrwMAAABUjEAYY6kl7VaY0PeM+d3LN3jcDhSJadPtBYbdLdKv6+MQz9BW6TxzziApGf/teit3IJMWWWQNeqMCWtB9hiqoFY2OWTCAi+6O+7ArDHrf7+gE5UZZtnpoPsa8H+s1Cqig2WqdwOABeNzlGTNWt1a9L2vk/uX28UjvYvJ5AACAsUYgjDHnXreTx8MHK2vKB6uFx3vd1Dz7fsK80DZM96o1zY3aulTmVBVOOSNMG+G0nOr9dqbWsBcEhFAzYmpYuWMccD+kuzxjygRlRzZ9wPdLCAAAAIweAmFsOaGuxMAsnlMWOMHKv6XPf2CVSplyR2llLHeqinKmafDh7HeibYM1sqe+J8+aVzHRJoua7ecUckKb7rZrz8Xo/+NujS0d6E2L6Hjomnlsm70PWzbLobQ6HA0rpdPneAAAAGD0EAgRoFY62uwWrrwWJqdFy7elzSdsDp6z72dLJGWatSCKqBPSO8FrJEKqw+n6qQKlKqM1fcP2o9K394CoDCQNbT6jhBqF9wdWrnRwH3WDZ2WfdX/pSJ4HAAAAlItAGFtnJWOls0Zp9Gu5cg2s4p4iItei5dvS5hdEjkq/TkZqm61eU1lYagNDkxNGK2m9KzVVhZzL2PdNtnZIk72kWKqluJy5LrH6fkF3a95RORjQSjiY0QP3qD83Nvnue6rZ77gkJZl/e6ehp8wwA84Ehmd7qgt9n6Ln9CIjpozzAAAAgBFHIIyxvhP91v8blj8onSpw5Kiw06Hn37MGVlHhpmAkzZLdQZ3Q5nFvmzP6aKJ1jTywKj9UWfMh6kFH/Obbc9Hhqcl5kp5U311+T06rZX4YTTW3DL2OY7BPTpqwvGxtl/q7+9jYcxM+vNpjjkWnq2nvjqLBYwaDWgmPHbf+pgOj3nd3efSk+Na5WL6mKEyeP28HyYbluozWrxY9iqee73CZlQaDw7MVGu0UGxhIh5N17+N4arUEAACIsUktt9z6vvk9tLq6ejl1asA8qj7Vvn9a06oNueBQzGtkTHt+voWJftn9iPcokdZgKipM6nvivAYOcf7uLWg0Ts3M12ce5eiRNoNGBFX8tutZztxUEd6y6R7ZuT1/e+Xut9WVtHBkVj0aqTMAjQdrfsCiKSF8joWm54XsT8qyVgk4ns65NA/11BUBo5UOD3ubc/qDR6cFAADA6KCFMOb6tm+QrXquOqtFzMjqydG7rfn3ioNE5QPKDO7dKI9u6Za0eo0hGSv0eG/T7ajs2NKj1jUPlawKP4d6/EfadAzu3SG70/nb1Pvp7g6bM7hHHn9ks/V896HRQeuQnmqjIAxqpffbbiX07IqqB10pOiZqcyp47tbdTz3nB9THolsOufdJnztVvq2btpnzE9Q186zs63HmKVQBcv9Ih0FNXz9RRrYFAADASKCFMEAcWgiBUWW1hIpv6zIAAABGFy2EAEaNPSBRozSO6gA2AAAA8EMLYQBaCIFh5nmvpP/9qAAAABhZtBACGD3H9hXcxwkAAICxRAthAFoIAQAAAFQzWggBAAAAIKYIhAAAAAAQUwTCGNNdYgEAAADEF4EQAAAAAGKKQAgAAAAAMUUgBAAAAICYIhACAAAAQEwRCAEAAAAgpgiEAAAAABBTBEJAWqRz/QZ5eO1SSZkl5Ym6HuIqteRBeVhdM53NZgEAAMAYIxAi9lJL2qVBMnKoe48MmmXl8FvPqfTn/zwoD6xaKk0kxzFhn5MuaTKPx0atzG1Mqv9nJHPOXgIAADDWCISIt9RSWdGqKunpA7IvVBr0X2/aNF3pL5SUREObLFu9QR5YUmuWYXSYIJbNyHmzZGxMl2RC/S/bLyfCXGsAAAAjiECIWGta3CYJ6Zfd24+aJeXxX6/WrvTrlsMtG+TRR8zPls2yO52xnpFoXUMoHFVOEDsXqgV42KWmq2tGGetyAAAAuBAIEV/NXbKsQdXPe/dJn1lUlsD1fFqBBs9K3/aNsrXXCYUdY9x9MUaa54k6XZI+ES70D7vpSSsQZs/TXxQAAIwfk1puufV983todXX1curUgHlUfdi/alYrHWvXyELpka2bwtw7WGK91FJ5YHWbJNLd8qhnq6NZP6FbEDd6dlNNqcC5oq1RElZzkpaRdO8BObj3qEc5zetl7e2lmpfKorY2aTDrZlUw7e3eJn0+O6jvrbu/VYbKkmqRzpXtan3T7VWtv9tn/XDlHJJS25i7uF3mNNgBScume2Tn9qDzUCtNqzqltWCd3v17pG96lzy8POk6nmof1rr2IZDav0fU/plHbtH2z7+c5+fpY52U9K4NsuOY+SMAAMAYo4UQ8dTcoUKZSLon3EAyJdcr2Qp0VjJZ/f+kJKdbC1x0kNkg9y93hxAtKQ2tK+V+r9FMU00yRz03K9OlY5UKHMuHwqCWSDTKstUPSofPYDb2/Y4ZyaidsQZeWb0yP0jp1yra0QjltOiwpMqotrHQFZg0fX/l/et9yqlD9vo1ssxjHb1vnXMb1SN7Hyy6a2ZZYVDxvK8w4v4FlrNLFlkDyvRLP2EQAACMI7QQBmD/qpWq8K9XwScbtnWw9HpNqzZY3UmDWoHsVrnCliLz2k4r1PGjMpgLOC3SsVKFKJUyil63WbeO6UCkqXV37ZCDx87aZbNa+3TAU797tli6Wjt7klYAyqrn7dzvbFsFuGaRPvV6QyKW09mWlZQKyqm3s6RDWltVACs6ts72FPW33d17cq2VVgueDm36ge85KX3O8kXdv0rLCQAAMDZoIUTsDPc0E0OcAWWCW4G8RiFtWqXDRL/s3rJRduguie4NDB6Vfd09ohsWE8n8wWhSSfNaOmg8otbNhSxFrbfDrCeJ6R6tWuZ+R2lUgUUH1M3yuAqNQ9s+WxAGKyjnkk47DHqVU29n7zZ5fEu3FaTcL2lvT9GBVgUpd9fVwWNqnV399gO/gVpCDuQSdf/KKad1HhhQBgAAjDMEQsTLCEwzMcQZUKac6Q3cc9G1SKOVJnT3zsL5C82Pvi/Rem4+p8unb0gdPGcHES9OWEokJbvLDmnBopazRRbpY6eDVlDrmApcefcqqmPeqrenQ6Tn/ZhDfAeMMV14yxtQJuL+lVlOvR4DygAAgPGGQIhYGf5pJlzKao1yQofrnjczCmZ4Q1Nc5F4rDOd+x97NBd0ffUQtp3Nc0sdDjeaammd3s8z29/keT7uF1B2u8zU59xeWk8Mi7l/55VTPyZQK3QAAAKOLewgDsH9VxtxvpwPQ43tDVMzLXa+c55nnuO/p876nsBzmvjXP+wMNPdCJz6in9v2O/qOdFopczojHvXT5nPsSVVD3HCm01N/zRd2/yssJAAAwdmghREyoSnmbCmLZHtkZJgyGWM9pjTp53O95KsDpMKh4dWEsvC+tJNOiFdQN0W7Z9Npe9NbF0OUcMaW66Jq/h2yZHP79C9OVGAAAYHQRCBELzqAmYaeZKH+9UgFLtxINDTziboEazJjJ6hubfKZrUOVori36W8luiM32BPreg9yEDylRyynnMvZALEGT8adafF7Ta3oOTU9hYY5nqQFlyhR5/ywVlBMAAGAMEQgRA2ZQk4IgVlqY9XwCVkpPqdBlzU+XG2WzsHvnseOS1v9PtFlz3DW5EoeexN2eX3CNLGo2Cw1ntNKG5RvkgSXuQKVDyIN211Qlvcujm2LI0TctEcspg31y0hrZplGWre1S67la4PTx0WVdvVJWLMlvmTt/3g5oDcv1OtavFj35fudaPd+f/bjkQC0N7dKhgpzDLqsqv3mcE3H/hq2cAAAAY4B7CAOwf9XBvjdMyr5XzhFqPedePfPQSzbdIzu3+7Q0OvcW+rDmB1RBcmhdc1+a6Na3ZMEE6kN879uLeF9f+HIaJY6P97Fxze1XKNsvu/uTsizw/Dj37pmHBTzvFYy0f5WWEwAAYOxMTtXWbjC/hzZlyvVy8eLb5lH1Yf+qgAoiv7eiUWrSP5S/fz5EbTzsejfdKXc32i12ebIqsL3xkuzp/rY88/wrcsksLnKuTw6efEtS9dMkUVNjFtpByV53sGDdm+T2j82VxBs/lG/83X65UFsvyUSNOGvm1ut7xyzJl/pwh8yvq5E3jjwlx8M0XIUup3HpFTl8oL+onDowHXp2h3x/71GP9QbluNrW5OumySy1jkUdz/Sz35WdTz8n7954p9qHjBx5pk+8d+EdGXixXyarbebWV7Jqm3u+p8LZK2aBW6T9q7ScAAAAY4cWwgDs38RnjwAZfnTHqOuNGtPiJmFb+AAAAAAX7iFE9TKDqmR794ULdVHXG0W5ue+Y1w4AAAAVIBCiSo38NBNjyR5QpswJ1wEAAAAfBEJUpZGfZmIsRZ9DEAAAAHDjHsIA7B/GJzOqpZ7CYtN4Dq4AAAAY7wiEAdg/AAAAANWMLqMAAAAAEFMEQgAAAACIKQIhAAAAAMQUgRAAAAAAYopACAAAAAAxRSAEAAAAgJgiEAIAAABATBEIAWAUpJqXygNru6TJPAYAABgPmJg+APuHqtbcJQ8vbzQPhqR3bZAdx8yD8WCilDNAasmDcn9rUiTbI7u790jfoPkDxplaaVrVKa3nd8jje8+aZQAAVDdaCIGYSiVVQCnSL/3jLGRNlHL6aVq1wQqD2XS3bN1EGBzfdAhMSqJ1jXQ220sAAKh2tBAGYP8QH7XSsXaNLJQeK7SM38wyUcpp02FwWYNItnczLU4ThrnGEv2y+5Ft0meWAgBQrWghBKBMl2RC/S97bpyHrIlSTrubKGFwIjor+3r61f8bpXVJrb0IAIAqRiAEINI8T1R2kfSJo/bj8WqilDO1VFaYewZ3EgYnnmP75FBWJNHYJCmzCACAakWX0QDsX3VJpVpk7uJ2mdOQFN3IpGXTqsK+PaDrYapWmhZ3SqtrHcn2y6GefbLvmFdF33Q3y3bLo9t1aFHrL+mQ1tZG1za71TaPem5Tj0S5qK1RGhLOfXMZ9fx+6d1f4t6z0OXMZw96InJoy0bZV2bTW6q5S1aosiZyG8xIuveAHNzrvW/DIXQ5Ix8XM7hIwbVinYfpepCbZGAZ7K6imRLldF0r+0U61LW5UG3PKl/3NtknLcXLCl8r7P6poPrA6jZJqGvQvj4LBXeXjHx9KqNzvZTo7ukMUKSCeqkux1HeEwAATESTU7W1G8zvoU2Zcr1cvPi2eVR92L9qoSv398m9v7NAZiVqpMYs1WoSdTK/vUkmn3xeBi6ZhYauwP7eZz4mtxWsIzVJmdV4u8yb3C+HB94xC43UXXJ3W51c7t8vhy/fJQ/82Uq5rS5ZsM25MttrXbW9h5bPl0RN3rOtMs5Z0CSpC6fk+LmCdZRI5Sxw452fkDmJU3LkmT45Z5b5a5HOtWvlo7ep/crfoCTq5sr8D18p6RdfkYLDOSzClDPycdGhSZ83j2tlzoJaSV2hQ01AGdT6v/s7dVKT/qH8/fNBSeImuf1jcyWRnSSp31kkt6rtWVT5aq6rldvVsjmuZbOue0sO/mzo9SLt3013yt2NSZUZ1fXpeU04ZeqXnsJzGPH6HN3r5R0Z+EWtLGpslGTh/uvz+pn5UqP2bfem3fKqWezn0nU3qddR7+U39qn9MgsBAKhCBMIA7F81sFsMls7SNdGMpHd9V3bueEp+eGCfHDzQLxcmXyvJOlWhrS+olFqV30aroq1b9J7Y9D9z66TVOvN1yKurLw6SpsJ9+Zp6uV23hujK5/d2yPefecreXu3tqpKvqsLvncqr3Fvl/C8fk1k1dhkfV2U86GzvwrUyW1VMZzV6bC9qOfO0SPvvqhCQPiDfzyuTF1W5X79SGnQ5e38oO3+ktveM3p76OfmWTK6fq0J3nVx7YSQq0SHKGfm4qP37s7tllvpNtwju6f62Onf2/qUv1Krz0Kj2T//RIzAZKRVaW+velUPdPwg45kqqWRYtUMExkbRa7LbqMqptLFLXj15WU7BMsieGrpmI+5f6cIf6W428ceQp7/PjlOmNF+WHw3F9jsX1ci4jkz+s3mdzrpULB5zQ7pxX9X78epkDxUyqlXn6WKhzXeoLFQAAJjLuIURVSy3plIVWBb5Htj6yUXYcO+vqJnZW+vZuk8e3dFtzww0tV5VH3a1M0XPdPZ7XvVOtr9bZ2ptRvydlzrz8QSecKRISuktd72Z5dJOqfA46XffU9vb3SNY88qQqnwfzuvqp7R1TZXxks+wu6roWvZx5UtOt7obZ86Vr5E2rVOVeV6pVWXborn7u8gwelX3d9v4lkiMwGEfZ5Yx+XOz9s0PW49vzu0Fa52GXHmxEn6Y+12u61cpcK7z1ywnvJwyZbrp56mvTKaMKM9b14V5mDO139P2bNk1fnxnJ+B1CUybfYxzq+hyr66VwUBj9pZAuh+7Cy6ihAAAUIhCiirXIIj2wh66QBt0vpCqm7op/akm7HQpUoPOb+HzweL9dkZ023V5g2BVuXVEPHlmyuMJ9VjLWC7bJilUtkioayUKFyYIdqKSceZwQkPEvr61FGvUGVUV72eoN8vB6jx99f5r13BFQZjkjH5fUUmm1VtT3lQYPWuNfhvJHQXW+PEj3uK5Ns4/uZc7znG1GP++1pmz+YbVprh00i/cv/PU5pteLMyhMa4d0rNL3FJa6nxMAgPgiEKJ6mRYlSR8P1SrgtKKcPF4qIBUyFW5r0nTvdVPz7MFlvAJF3/bNsjudkUTDSrnfqkA/KJ1LVOXb/L1Q9HLms0NAGRO9mxE+x0q55Yx6XHLnxrf1zwlnAS1sIVpbvVrr7H3MX2Y/b2i/I5/3VJPVXdk/rDrXr/f+hb0+x/Z6GWolXKgKkd5FGAQAwA+BENWrVPc3T65KcVAF0vO1ndahjJy3FxTxCgFDzqpK90Z5dIuqePfqFp6kNLSqyrdV8S7sUldJOd2cViP/MjtyLVq7NsijjwT/DP+8e+WWM/pxKR20THfQUq+tlGrFHGo9c7+WV9nN83L7XcF5L3ktONevXwtimOtz7K+Xjja7tTMy53iVPJcAAExsBEIgtKHKZl5l0WkRKacFJqgyP6gq3vreRl1Z3tIt6ayueHdKR+gJ0XzKmSf8RO8jcn9gScM5IX05x8VDroUtIJSaEFGSZ+u12Uf3Mud5ofbbe/8Ku54WSpW8fo2Q1+dYXC9NTjfRXap86nFD29LQ8wmW3XIOAMAERyBE9TIDdOj7iJrsJcVShV3ezL1S0iiNzdaCIu6Bag66Kou5FhHfSdP9WhBbpFPfl2Ue5Rk8Kjusrm9JSebdBhi9nHlMCPBvNRoymNEDlajjGTBZd6q5tkTFW+3rWvv+sQc8WpV8lV3OSo+LzwA86jrpWGnudwsKTM41VyoEebXWee1j0fOi719Q67Q1554ZqKb4GEe5PsfuerHngNQtkxtl37GjclAPsJNok0U+x8tbYcssAADVi0CI6jXYJydN5XnZ2i5pSrkqlHpC71UPysOrV8qKgopm3wl7JMmG5Q9Kp6qw5uhQoNa53xqoJiOH8kYmLdUdVHEq/AX3qFmDhOj7stba28urIKttdvp0fYtaTi+60t7kbFgfG/frOY4dt1pbdOX6/rVLh56v6En/rW0uXxNY8bZGnbRSVXBQ8FNOOaMeF2e9ROsaFT5arOvF2a8H1HVihSzFP/CXz6u1rtxllZ33pCxc7Ap3ah0duPQ66bQd4ApbEKNen2Nxvehgq8Oge8Cdwb0HwrcSmvdq3oA/AABUqUktt9z6vvk9tLq6ejl1asA8qj7sXxXQk1EHjGSo55rbub240ue0MnhTle2iEQtrrfkOFyb6Zfcj3kPb68qqVfHetaFodEjnb770nHQF0xBo4ctZSFXo9Txx5lFOtke2eo3M2twlD5uWJC96ugY9Qqf3Jp1jZB6q5z5aYjTPIeHKGfW4+K2nr5Pe842yrFVKHFOzj+Jz/Ax7O/nlsJe5rx//ayrS/vmeO/v5J+bpa9B7/6Jen6N5veiJ+q1WTo/nOeXXQbH0/YrmWvN7DwAAUGWYmD4A+1cFLr0ihw/oCeHrJZmosSbytmT75dCzO+T7e496Ti5+7mdmIvJpSalxVspmJH3kh7Lzuz+QnxWtdJPc/rG51kT0fhOW33jnJ2ROIiMnDxZPEn9p4Hl7ou7rpkmNq5xZtc03nv2u7Nz7c8+KafhyFhqU4yevlFR9najNWrJqH37S87z87JzHZNzn+qxypuqnqefnjqYVmPQk7s88P+i577Z3ZOAXtTJPT7yutrH7h/8s50qWzxGunFGPi73elXLtFXqld+WNN16S3u5/VPt1TuZ9vF1m1ZySI884k517eUeuvalD5syqkfeKJml3qGPQfnvBa5lll93Xj/81FWn/1Lm7UKvvg3RWMJPFm+fb16f3/kW9PkfresmFQR3i/u5fil7z0sB7kmqfK7Pq3JPVe0stuUc+Wlcj6We/LS8EPREAgCpBC2EA9g+ALUSrkdMqHaoFFOOC06LJuQMAxAj3EAJACbnJ4APmKMwZ3CO91k1r7RFGhsVY0a2MVhjUoZ8wCACIEQIhAOhWPa+J1vMGaumX3jLny+vb32PN07dwdZf/CLcYN6x7DJ0wyH2DAICYoctoAPYPiIkSgw+VN0BPgeYueaAtI73de6SPhDFODQ1cEzzADQAA1YtAGID9A+JET0XSKa0Nrsnl9UAt/Qfk4F6CQrVKLemSRZl9suNYea2/AABUGwJhAPYPAAAAQDXjHkIAAAAAiCkCIQAAAADEFIEwxuguCgAAAMQbgRAAAAAAYopACAAAAAAxRSAEAAAAgJgiEAIAAABATBEIAQAAACCmmJg+QJwmbm9atUGWNZgHSjbbI72b9kifeQwAAACg+tBCCKVWkgnzq5FItMmyVS3mEQAAAIBqRAthgDi1EOZJLZUHVrdJIt0tj24/ahYCAAAAqDa0EKLYYJ+czIpkz58zCwAAAABUIwIhiqWaZE4iIyePnzULAAAAAFQjAiGKTU9KItsvJwbNYwAAAABViUCIIk1zGyXb3yfkQQAAAKC6EQhRoEUaG0SyGbqLAgAAANWOQIh8qemiZ6BoaOuSppS9CAAAAEB1mpyqrd1gfg9typTr5eLFt82j6lPt++fp0ivyxoVamX1bo9y2oEMWtXfIvMn9cnjgHfMEAAAAANWCFkIUaJFFbY1WK6GD7qMAAABAdWJi+gBxnJi+adUGWabvIeztlp3Hj8ogI8sAAAAAVYsWQriYAWV6N8vjewmDAAAAQLUjEGKIGVCGLqIAAABAPBAIMURPSC8ZyZwzjwEAAABUNQIhclLJpPqvCoR0FQUAAABigUCInGnTVCDMZuS8eQwAAACguhEIYdgDykj2nNBACAAAAMQDgRAiqRbpWLtSrDx4nhsIAQAAgLhgHsIA1bx/znyD+fpl9yPbpM88AgAAAFDdaCGEJZvukd1bCIMAAABAnNBCGKDa9w8AAABAvNFCCAAAAAAxRSAEAAAAgJgiEAIAAABATBEIAQAAACCmCIQAAAAAEFMEQgAAAACIKQIhAAAAAMQUgRAAAAAAYopACAAAAAAxRSDECGqRzvUb5OG1SyVllgAAAAAYPwiEGDGpJe3SIBk51L1HBs0yAAAAAOMHgRAjI7VUVrQmRdIHZB9pEAAAABiXCIQo1twlD6yqrJtn0+I2SUi/7N5+1CwBAAAAMN4QCFGkaW6jCnPnonfzVIFyWYNItnef9JlFAAAAAMYfAiEK1EoyocLc+XPmcVi10tHWqF6gR3buPWuWAQAAABiPCIRxl1oqnauWSpPTPzTVJHN0IMw4Ya5WmpZ0SUdzrXlcQnOHLFTrp3sYSAYAAAAY7yanams3mN9DmzLlerl48W3zqPpU+/5Zrr1J5i1ok4VtHbKovUlS9UmZVVMjckWt3N7eKXd/7HaZc01GXn/xORm4ZNbx1SKdf7xIErp18OlXpOTTAQAAAIwpWgjjbnCP7Ni0WXanM+pBUhoSSWtxoqFREomMpHu7ZeumbWWNFMo0EwAAAMDEQiCEclb6tm+Urbv6zWMl3SNbt2yUHXuPlhfumGYCAAAAmHAIhDBaZNFyPRhMRrJZ9TChfkIEO6aZAAAAACYeAiGUWulYu1IasirQbdooj/f0q0DYJouazZ9LYZoJAAAAYEIiEEKaVq2Rhbp1b9M2O9Ad2ya70yINbeVMTs80EwAAAMBERSCMu9RSaU24wqDRt71b0olGmVsiEaaWdDLNBAAAADBBTWq55db3ze+h1dXVy6lTA+ZR9an2/atci3SuXykN6W55lHsHAQAAgAmHFkJElptmYj9hEAAAAJiICISIhmkmAAAAgAmPQIhImGYCAAAAmPgIhAiPaSYAAACAqkAgREhMMwEAAABUCwIhQmGaCQAAAKB6MO1EAKadAAAAAFDNaCEEAAAAgJgiEAIAAABATBEIAQAAACCmCIQAAAAAEFMEQgAAAACIKQIhAAAAAMQUgRAAAAAAYopACAAAAAAxRSAEAAAAgJgiEAIAAABATBEIAQAAACCmCIQAAAAAEFMEQgAAAACIKQIhAAAAAMQUgRAAAAAAYopACAAAAAAxRSAEAAAAgJgiEAIAAABATBEIAQAAACCmCIQAAAAAEFMEQgAAAACIKQIhAAAAAMQUgRAAAAAAYopACAAAAAAxRSAEAAAAgJgiEAIAAABATBEIAQAAACCmCIQAAAAAEFMEQgAAAACIKQIhAAAAAMQUgRAAAAAAYopACAAAAAAxRSAEAAAAgJgiEAIAAABATBEIAQAAACCmCIQAAAAAEFMEQgAAAACIKQIhAAAAAMQUgRAAAAAAYopACAAAAAAxNanlllvfN7+HVldXL6dODZhH1afa9698LdK5fqU0ZHtk66Y9MmiWlhZ1vXGiuUseXt5oHgxJ79ogO46ZB2VoWvWgLGtISjbdLY9vP2qWjpzR3h4mtlhcL6kW6VjcLnPUfibMomy6R3Zun4CfS8OEzwkAgINAGIBAaEsteVDubxU5tGWj7AtRewpaz/5b0jzykwm9zeHkXcZ+2f3INukzj0pKLZUHVrfZldDRCMYRt2fvaybcvkVQ8rxP1C8PJqpRvj5H6zrL497HQln1ft40imUZZpGP52h/LgEAxjW6jCKYqjis0BX49IFwwazEetOmlQqDWkYyY1hLGdy7UR59ZIP52SyHsmphNiPn7T+XZ7BPTur11L6k+/tGvtIVaXu1MrdRnY+w+xZByfOePUfFdDSN6vU5etfZkFrpWGkHH90StjX3ft4gW3f1q33eN2HDYEXHc7Q/lwAA4xothAFoIdTdijbIsoaQrWJK8HqqkrZ2jSxMhH/dsWO6v6pK5aNV171qHOyb6Z6b7d0sj+89axaiuozBdea0hPG+BQDAFy2E8Kcq6csaRFXSQ36LXmq9VJPM0V/Zp49PkDCoNM8TtUuSPlGFFa9xsG+ppN1ymM0QBqvWGFxnqXmNVusg71sAAPzRQhgg3i2EphVPwt5fUsZ6kVqDSrQqOgPAFN0PY9bL2t+ip5qXyqK2NmkwNxRls/3S261er8QO2vfqlHEfpVOOQmHu50u1yNxyB8CItL0W6Vzbro5Bie6bltFpxS3dEl2rntMprQXHpHf/Humbro9B0nVuymyBDmw9CrO9Ifb11eg6thm1nrrG9HolTn6o824UXZfqNTpXus6tvkfOfX1Hvj6jvI/G4jord5sF2yvZkuh3TeUfF+u6WdIhra12ENV0V9Wd6m++57Ds817B8az0cyml9mtx/vtBX1uHevbJvmNen+GVHxcAwOihhRDemjtU5Uck3VNGZcGtjPXs1qCMnDwepjXorOzr6Vf/b5TWJbX2IoeuzFlhUFWCCis3pjUyK9OlY5WqPC8fqsRqiUSjLFv9oHSkzAIf9r1vpe9pdFq6CmXLuk9HhxBVxtUrZaG74qUkGtrk/vXF5Yy0vdR0td/lVCqVUbnfq0UadVOH37b0+V2/RgXG4mOiz13nXF3RdZ+bs3KiP6P+n5Sk73lVFVbr3rKMHNpfEABCb89QlW77+nIfW/UaznrNBddtTvjz7nBflzocPqxeI2/7+sVc5Yx8fUZ5H43FdRZmm27T7eOePX/OflxkuiStJxSU0zkuej3nunGFHi3RsFJWFH5mWUKe9wqOZyWfSyl1XT+wuvj9IOqcL1y+Rh7w2reKjgsAYLTRQhggvi2ELRGniyhvPbs1yDzw4N9y6PUtvdmmXwtD3jfjGUnv2iEHj521y2a1pugKtPo98D4cs43A5/gw2y89VYWzb/r3gnLqiqPz7Xqpc1L29hxRz/Uw0hVG39YZ5/wqqoy7u4da2nRFdYXaV+uQFZbfHAffa8n37xG3lzt/9rnbkWs1qVXrdZj1vEbNreS8m3V1a3xPUoU0tT+61UUF3EHriWr9ZpE+zxYco9zrxTzPFuV9NBbXWfnbtFtak/7Hwe8ada4jFcBEhbWE1SK7T10z+pjrwKeDlPq16LhU+n6v8HhGOO/5LXrqulZlvF+VUZe/6LqOfFwAAGOBFkIUSS1pVxVi9Y+8qgyHqWiUt16t/U17JIWthLpSpSvvukLiEQaV3DfjuuL0yEarop4r2+BR2dHdI9Zge4np4tuYpL+ZV//zbz3wZ28/I5kSq6aWdNqVQ69yqv3u27tNHt/SbQWUoHNS7vZyzL6N6eieAa0zTav0+VV0xVFVfN1dEgePqWOyS18PSmH5z2Ws85qYNt1+nEddN22qIquO9c6CsBh5ew5V8dUV+yHqPOr1Htksu726mFZ03k2rlXo/rFiuw4wKt7rCnnuiWj+vLMXKvj4rfR+NxXUWYpu5lla/4+BzjTrHxWq5692srhn1OWSFHk0d//3muBSo+P1e4fEs77yr0GnCoA6O1rVlPdJUeVUZt/baLfFz5uW39EU9LgCAsUEgRL7UyEwzMcRUYnWF2zUEvPsn8L7CY/us6R8SrR3SscpukfG6l8vhVPR8Q+rgudIVE6cyGHrAE2dY+H45EXhMWmSRPna6lTPo235V8c6/R6tQudtzMfs2lgNTNFldMD2Or7qmWnU605XmEq0IReV3htX3CChOZbyoW3Ml21OV3Iy1vTZZsapFUkWpSFWCi85JhefdCQWq0p3dZYeKcMq/Xip+H43FdRbwRUM+8yVVwHHwu0bt46L2S4fxgM+t/DIMw/u9ouNZ3nm3v+BTT1OBzq8VcfB4v3XeC794iXZcAABjhUCIPE2L9X1VqqISshtP2euZkfGiVwSGWgkXqhdKq4qwfwB1WiMzFc1naFcG+6W/rC6Ybs59RyW+xXcq9hWPulrm9lzsfQvRojjsnHNUfHydESKD7nPyb+lwAlpSptkLDFMZT3cXVXIr255I3/bNsjudse6Nun/1Bnl4/YPSuUSFQ/P3IpWedyfwBFTYg5V7vVT+PhqL68zZZsl7lZ1Rj32Pg2v/88rvvna9t5G7ptxBchje75Udz/LOu/MlQLh7vbWIxwUAMGYIhBjSPELTTLg4XYmiVwRMd7+yOK2RARWvkl2vTOUmyqAX5Q4LX3ZLRgmhh6GvvKJfOadyWnx8S1dITUuHT/nPn9fd2Rqlsdl+rNldQjPFA8kolW7PagXcvlEe3aKCYa9uOUlKQ6sKh1Yw9Bg8o8LzXnbg8VP29VLp+2gsrrMQ2yx5HpxrtLBFzf/adTjXVF5wq/j9XuHxLOu8l7kNz32JeFwAAGOGQAjD/76qYOHWq7QioAcjsLqJ7uqWtHrc0LbUvwWmjNZIu2UzqHLkVG5KtaIUK+8+neETfntlVPRHmjlHUY5vqYrnYEYHQt1IaMKY6RKa7d0Rrjt0TumKrmXQ3AOmu0BvUddpVgfDzpIj2YZTecgq+3qp+H00FtdZmedKKfUlVcrvGi157Y5UEK7seA7f59LQl3N5x27MjgsAICoCISy+91WVEG49UxEIc4+bizM6qdVN9NhROagHNEi0ySJXC5BbqYqe07IZ2B20jMqwn1z4LbWvzgAorR3SZC8plgroemiUvT2H06ozovSIgl0+YWioQukfyJOS9BoXxnpdMwCMX8Xz2HHrSwP7/ia1LWuaiX7pDfziIsr2WqRT3zdoHuXRA65YXZw9Xrei815+4PFT7vVS8ftoVK6zAiVb/ocEfUlljT7qjLJZ8BngHJfSXyYVnKNK3+8VHs/yzrvpcl3Qwu7mHhjnoOu8Rz4uAIAxQyCE4n9fVbCw6zkVgdKVtEK6YmZ3Sx26X2pw74HAVkK74qP+vnyDPJB3L5eu3D+YG049vct7hFK3RGOTNDkvoCdp9p1TzuF8C54/b2KquWXodRzOACjqucvWdqm/u15bb0uXdXWpObtCbK9QQ7t0uPZHT5TdsWqpf2U1jFSTtDY0ykI9R537mOltOMPuF1QoHXaXT33+9DGxfrXoSdE71bp2CFGr+4b1c+Y+wunW1A/WFxcB5zrq9qzBN/R9g2vtuQbzDrfaz06/Ls6VnPcQgcdb+dfLsL2PRvI6K+Dco+YfSgolZeFi177p87Z2gz0VRdq+LgoDcVCQtDhfJhXekzos73cl0vEs/7z3nbBH1G1YXjCHprUde5oOvf+FAw1FPi4AgDHDPIQB4jIPofUteKsEjtbpJfR6Zm6qUgrnhtPzv1nf0uuRSQsGrbHLkCxaR1d87Dna9LfxSUlYlaBixesVMvN9mUc5eiTKoBECFadshTzn/kqZec7Mw0LZdI/s3D6M27OYY+Sz0ZJzlJUpd/489XvPH2nxOfZaVq3Xn5RlJa4/u1VZXQNZfa9TqXMWfXt+xz5HXbt65NKibUc97+a9VPr69Vfe9TIc76PRuc7cnPNe1meT7+eSvf6Jefo4FZ53Z5/8r1/n+A7/+72y4xnmcyJ4zliv41vhcQEAjAlaCONOVUxGdpqJIU5XojByYUIHMI8RTJ1WwuLuV05r5AF5fJM9+qP1pbyhK1y7t5SY4sJyVHZs6ZG0a+WsCgeHekp/uz24d4e13SEZSfd2e7aGyeAee666gnLqIHLIml8uOAxqobZnOSv71LE5lLeOvX/62AxXZU3Pw2ffS2cWWNR+6pDkGwY1fey788uX1ZN4b1bBbpvpbhbc9c1u5dBBprglo1j07Q3u1YPJ2OvmXWfO+l5hUIt43kt24yxDedfLcLyPRuc6G+K0gpXqFmmo69PrOOj5AfVnm3cXy9LdHgNbyip6v1d2PMN8TvRt3yBbd/Wr1zYLNH1Nu45PvgqPCwBgTNBCGCAOLYT2N8D+3+b6ibreqDHfwOtJkaO2oACxx/sIAICqRwthnDWP/DQTY4V5roDK8T4CAKD6EQhjq3ZUppkYK3RLAirH+wgAgOpHIIyp0ZlmYqyEvIcIgAfeRwAAxAGBMKasQTAeCT+gQ9T1RlfpgQ0AlML7CACAOGBQmQBxmXYCAAAAQDzRQggAAAAAMUUgBAAAAICYIhACAAAAQEwRCAEAAAAgpgiEAAAAABBTBEIAAAAAiCkCIQAAAADEFIEQAAAAAGKKQIgytEjn+g3y8NqlkjJLAAAAAEx8BEKUlFrSLg2SkUPde2TQLAMAAAAw8REIESy1VFa0JkXSB2QfaRAAAACoKgRCBGpa3CYJ6Zfd24+aJQGau+SBVXQrBQAAACYKAiH8qYC3rEEk27tP+syiIE1zG1V4PEe3UgAAAGCCIBDCR610tDWqNNgjO/eeNcuC1EoyoZ5+/px5DAAAAGC8IxDCW3OHLFQBL93jM5BMaql0rloqTU7/0FSTzNGBMOOEx1ppWtIlHc215jEAAACA8WZyqrZ2g/k9tClTrpeLF982j6pPte+fvxbp/ONFktCtg0+/IpfM0jzX3iTzFrTJwrYOWdTeJKn6pMyqqRG5olZub++Uuz92u8y5JiOvv/icDHi+AAAAAICxRgshipQ1zcTgHtmxabPsTmfUg6Q0JJLW4kRDoyQSGUn3dsvWTdsYmRQAAAAYxwiEyBdqmomz0rd9o2zd1W8eK+ke2bplo+zYe5TBZQAAAIBxjkCIPKGmmbC0yKLlevCZjGSz6mFC/ZAEAQAAgAmBQIghIaeZsEYiXbtSGrIqQG7aKI/39KtA2CaLms2fAQAAAIxrBEIYYaeZEGlatUYW6tbETdvsAHlsm+xOizS0MTk9AAAAMBEQCGFJLekMnmaiUGqptCZcYdDo294t6USjzCURAgAAAOPepJZbbn3f/B5aXV29nDo1YB5Vn2rfvyEt0rl+pTSku+XRsu8dBAAAADDR0UKIoWkm9hMGAQAAgDghEMZdqGkmAAAAAFQTAmHMhZ9mAgAAAEC1IBDGWehpJgAAAABUEwJhbIWfZgIAAABAdSEQxlToaSYAAAAAVB2mnQgQn2knAAAAAMQRLYQAAAAAEFMEQgAAAACIKQIhAAAAAMQUgRAAAAAAYopACAAAAAAxRSAEAAAAgJgiEAIAAABATBEIAQAAACCmCIQAgIqlmpfKA2u7pMk8BgAAE8Oklltufd/8HlpdXb2cOjVgHlWfat+/Cae5Sx5e3mgeDEnv2iA7jpkHZWha9aAsa0hKNt0tj28/apYOr9SSB+X+1mToso2U8VaenFSLdCxulznqfCTMomy6R3Zu3yOD5nHcjMb1Odyc60uyPbK7e4/0xfXkYYzVqvdPp7Se3yGP7z1rlkVRKx3qdRaq9+GQftn9yDbpM48AoJrQQogxpv4BX9IlD6zdIA+vt38eWLVUmlLmzy6ppPsfZ0e/9IcJOKml0mr+kU8kpovHZobFtGl6GxnJnLMfj61amds4nspjqHPxwOqVVqXLCYNaoqFN7p/gLU06ID28PsI+jNL1OZyaVm2wwqAOsFs3EQYxlnQIVJ8nrWuks9leEp4Kg2vXFIRBJZuR8+ZXAKg2k1O1tRvM76FNmXK9XLz4tnlUfap9/8ZaqrlLfu+PPya31SWlpsYsVGoSdTJnQa1cONAn7vxyaeB5OXhgn/npl8kfvl1mXe6XnhdfkUvmOSVdeleu0+vVZCR9ZJ+8MPCO+cNwqpV57Xobp+TIM/n7MDZukts/NlcS2Zfkn/aFOFYjSlW6fn+lzFHnXQeJJzb9T/mhObfpC7Vy7bv7ZN+InJvRUCt3fLw9/LWpjcr1OXx0GFzWoM5h72Z5/Omfj5NrC3F27mf2vw233lb8b0hZmj8ln7lNhcFsv+z+3kb5/jPm35yw72UAmEBoIcSYsLqYLW+0WoasloUtG+TRR/TPZtndm1FLG2XZqhbrud6mS9Ja+VzIroVnZd8mvZ2NsqOiLkUBUk0yR5ctfXx8dC9KTbdb4EIfqxGUO0Z2t0h3uQaPbRu5czMqol6b2ihcn8NEv4dzYXBCny9UF/Ue6ulX/2+U1iW19qIQ7J4oGTnUvY3WbgCxQSDE6EstlRX6fiP1j66+p80KBLl/eM9K396NsnVXj2wNun+qeZ6ouqikT4zDe6ym210gs+fHSf/Mcsqju29aXXYflI5R6KeYmmd/GTAuz1+lxvO1OVyc93C2R3YSBjHeHNsnh7IiicamkN2uTff6bL+cIAwCiBEGlQkQq0FlUrXStLjTun9JV9Qt6h/FQz37ZN8xrwqfuc8i2y2PWsFN3wvYIa2tdkVf0y1/Owtaf3LrqSdVMsCJPYiFyKEtG2Vf0D/cPgPR6Iqsvt+pnH/zU6kWmRti4BO7bH4DuAztv1/Liu5Ku6JNHcfciVDBufeAHNxbeCzdzGAKBWXs3b9Hzs8rNaBMi3SuX2mFGG1kWnzUNta2S0NCfxEQpGDgBus+wzZJqGvJvs4KOcezcMCHqNfnkPLPe7n7phWUs9Lrc9Tet/nsrqKZEu8/17b2izV4kHVfli5f9zbZp45b0bLC1wq7f5GvF5seKXWReu8NncuMOh791vuoVGtRtPdtWPnnzy5vmyqv/desOja9gS1b/p8TfdP1tZj0PKdFn7fqvdG50nXNq+3u9txumO0Nw/XiUlTmshS+PwAgHmghhFWReWD1Gmtkw1xdRks0ysLla+QBr243psuf1epktS6p9V2VSi3RsFJWFK7b3GGFIV3hPVjBaJe5QVtK/EPvPRCNrk/0lVFJ05UZVanwG/jEpzXNf0AZHRx0ZVSHYa/Qpf++we5K696YJKWhdaXcv3ap97fdzvH3KOOy1V2yyBpQJmDwHadL6UjS2ygrMBUo2brpdM8sGPAh6vVpCXnew+xbQTkruT5H9X3rptZrtZpAD5SoaJtzI/Ok0xxLiyrfnMW67PnLFi7O7yIeaf+iXi+a2t79y3W4cp8T9XrW++hB6Wz2OyYR37dROOdP7UeHvkat8pq/KQl1bHRZPVv5Az8n1P7N1V9MeH+muj9vddB6WJ27vOOkX7BwvdDbq+x6KTSY0bceJCU53X5cHrsM/tcPAFQnBpUJEItBZVQl6CFVkdFjuuQP7tEv6cnXynw94EtdvUw++bwMuO+ov+lOuVsFjcvX1Mvt+ltx/Q3x93bI9595ylr3Qu3tVsWl5r1TcvBnQzWFpo5Oa3n62W/LC5H/zW2R9t+dKwlVIf2+67W95A9Eo34u1FoB6Y0jT8nxwO3b3xQvnaWPjO7a+l3ZueOp3LG5oI5Nsq5O5tRfKem8wQZ8BpTRlaM/u9seLES91o6i1g1VqdStdPrvvT+UnT9S58EZzODkWzK5fq7MStTJtRf2FZRbradfV/+qh/z/3rdzgyDowVlmNzaqbeq/BQxwcukV+UWtrmjW2K1DIzE4iNrGYeccHHhLUu16kJse2fr1b+cGk7F/8geBSH24Q12DNf7nK9UsixbUSc0bL8oP3ddCxOsz0nkve9/UT8E5iHx9jvL71i115yekte5dOdT9g/zXLuScGxUcdIvdVl1Gs396WU3BMsmeGNpmxP2LfL3o8/5fPpZ7fz6uzrl9TtT2Llyr3kd1MqvR43hGft9GZM6fHnhrVuLd/OtTbS+ltpeoqZFZ171VcP5KfU7o19N/8/qcMJ9pepCkX9wp93+0zj4n3c6+quvmwoD0nXMPgBRhe5VcL14mqXLr11PbOFzu4EzNS2SFeu3S/z4AQHWhhTDW1D/aqtKl5e7lsx5pZ2Vw7zbZag3wkpQ58/K/HXdaNqyWkd7N8ugm3V3ICTlnpW9/j2TNoyEt0mj1Sww5VUQh06IV5VtcZ8CA4ta7fKklnbmWzK16gA8V4NzHpk8dm8e3dFtzruVVSXKDpbgGlNFhUHdjU9vV3ZeKw6Dugqe7bKrKuf677mLmftHBo7Kv2z6eiWT+ebDXU1Rl6dGCIf/14CyP7+q3z0OJAU76tm+0BvUpHOBlRIQY5Kbk9B0+LULRrs8KzrsjxL55Ke/6HO33rVuIe6zMubGOpVPGcxlzPbqWGUPnMPr+Rb1ectR+Hcx7f6rt6feRHuzKo+th1PdtVM7587w+1fZ2mO1JwZQl5XxOWDyvW6flrlFWLNddzzcX3/dd8JkWaXuRr5fhUKvyqPqctq67Cv99AoAJiEAYY6kl7dY/2vqeMb97+QaP24EiMS2/341d8dIVtuD7zTz/0a50PienUpfx3663ciuzLbLIGvRGVfSC7uNSFbCie2YKKpy629vDrjDo3cXOCcq6u9fQfIx5P9ZrFHC67pnKkh93ecaFUpXynFrTvc//fDVZ3c7UUwquhWjXZwXn3WH2LdqAMuVdn2P2vrU4XS5LB14nvKR7XMfSOT6uZc7znHMYff+iXy861GSsF2yTFataJFXU5VKFnqLXjPi+rYATeA/5fSExeM4OUG5lfk5ontet8yVHIinZXd5faOWJuL2o10tF9Jd11rlaY3W/1Z/T6V3biu4tBYBqRyCMMadycfJ42H9YTcXL+ibVe11nFMm8f7SdikWF7EpdlG9xy6zMOuWMMG2Eu7JiDWpgWjoCK/lmVMqwcsc44H6zYa08DRP7/JVx3Tmtrb7ny7kOC1uEKrw+K5guxNm3Ui3Q3sq7Pkf9fetmjlE5XzA45XQfC6/jYz9v6P0cef8iXy+2vu2bZXc6Y91Deb8V8B6UziUqHJq/F4n4vo3OVf6gC6RA+Z8TPtet8wVOQEB3i7q9qNdLRcy+ObLpA2XtIwBUGwJhbJVZuXAqA3kVQKfi6t/S5/WP+/Aw5Y7SyljudACe+1weZ78TbRuskT31vTbWvIqJNlnUbD+nkBPadPc4ey5G/x93q07pirNpcRquytOwCFGpLXkenOuwMGxHvD4rOO+2aBX2nLKuz/Hxvi39BYPTeuYup1fZzfNyZapg/yJfL46zdtfpLXouVN0CaQaFsYJhcZfPqO/b6Ez5g76wcL7UcIXi8j8nvI952V/gGNG2F/V6CeBcD0HX6rFt9jlS5/xQWn1MN6yUTp/PaQCoZgRCBKiVjjZdGSj4R9X5Zrycb+LdT3C6MyWSMs1aEIVTqQtuRfES+C34sHAqNaoiospoTd+w/aj07T0gqq4hDW3Bow0O131GQ0oHgNFXfpmcCrdfhS7ldx1GvT4rVkaFPcDwXZ/D/L51M5XskjxbWz2Oj0eAKc17/yJfL4UGzb2iVlDolnRWB8NO3/k5h/9968OUP+gLi6bFdhfVcF2Wg96TI/Fe8djeCFwvdpAt88swdc73WffPjuS/DwAwfhEIY8vcMyON0ujXcuUaYMM9RUTum3HfSodfBeOo9OtkpLbZ6jusfW3wEO1lVIr85Fo/StUkzEAGidYOabKXFEt5dCVzKitqG4e2uFsFjsrBgFZCe3h09eeASZRTzX7HxW9YdT11ghnYIbDy1GINma/vd/Icxn+4hajQBbVWubvjFl4Lka/PqOfdkTv/0ZR3fY7F+9bFOUalQpBXa53Xe7foedH3L+r1Yr0H9H2D5lEePVBLjx4Apfh9Vtn7NrxSgVePzLrMesN7haConxNlXBOeQm4v8vXiJ0RLYp4y/n0AgCpEIIyxvhP2SG8Nywvm2FKVXmuOK2uAjeIBDIIqXhbnH3KPe0icUQwTrWvkgYJKmDXvmL65v4x5u3QlrMl5kp682neOMIfzTXd+GE01twy9jmOwT06aSumytV3q7+5jY89Rp+fhKpqrzams9O4oGjxmMKiV8Nhx6286MOp9d5dHT45uzze2pihMnj9vV0gblusyWr9a9Gh5er5Du3IYXHmyKmfWcQmu2A4X5/6i8lswktZ8Y7ly6Qmx9ZxveqL9tL3/hRXkyNdn1PNeqKFdOlzXo30O1Xk1j72Vf32Oxfs2LK/wUu6yqPtnC3+9WIPY6PsG19rbyzvcen3TGlkk4vs2Kvv86eOiv7xxf3aaazM3Mmv+oCgVfU6E+ALHEWV7lVwvnsy1nDdATQnWZ1PoAAkA1WFSyy23vm9+D62url5OnRowj6pPte+f1rRqQ+4f6GK6patwZEx7nraFiX7Z/Yj3aGzWt/G6ArZrg+cN+s7fvXlt001V0PS8X+ZRjh7RLmhkSMVvu57lzE0V4S2b7pGd2/O3V+5+W11JC+8p0qOROgPQeLDmBywYdt33WGhZdX76k7KsVQKOp3MuzUM9RHyJUQErZV9vpc6x4XtM7PVPzNPHs3D/Krw+I5z3IQXHs4DfdeEIc32OxfvWZl5Hgt9vXufZXubevn+Zwu+fEul6sfkd+xz13iic9sAS6X0bhXPcdQtt0uqS7sXzs6WSzwmzf96v6yf89iq9XvKZ7Zfxb8IQ+7Xn9IfZTwCoHrQQxlzf9g2yVc9VZ7WMGFk9ybKqAD3iUUEoowtRqZaIwb164AZ9b479TbJNVXR0pctzm25HZceWHrWueahkVSXjUE/pVo3BvTusUQSH2Pvp7naWM7jHnntMPd99aHSF5pA1D1dxRaP0ftuthJ5dEvXgBkXHRG1OBZDduvupZ6VSH4tuOeTeJ33uVPm2btpmzo8qj++BOSv7euzh+62K2v6RDYO60mW3ggWVyUUdE6/z5VwjueOd91oVXp8RzvsQdTw36cEpCs6hPrbqHAaFQS3M9TkW71ubMz1Do8zNa0pz8zrPZlne9v3LFH7/lEjXi835TNLnLm+Tepv6/eQX6iK9b6NwjtUBeVxdY4XXZ257nmEm+udE2S1yecJur/Lrxc2ZtiRM66D92hFGtgWAKkELYYA4tBACQChOK+ootCjDMMdcQrXUxZDTYhv22rTWkxItjwBQvQiEAQiEAFDMq4sfgpXslponv1tked15403fg24NHBSqq6gtd3xV4N5B4AYQQ3QZBQCEYg8OlZSFq7tKDJYDh91lNZryuvPGlxXoIoZBzRkxtqF1jTXisv3DtQ0gPmghDEALIQD4aO6SB9oy0tu9R/poJRxB5Q6mEkfOsVFZsKIBfPRIrZ2yrMEd2jneAOKDQBiAQAgAGFtRRs2Mj9SSLlmU2Sc7jtHVEwCiIhAGIBACAAAAqGbcQwgAAAAAMUUgjDHdAgoAAAAgvgiEAAAAABBTBEIAAAAAiCkCIQAAAADEFIEQAAAAAGKKQAgAAAAAMUUgBIBRkGpeKg+s7ZIm8xgAAGA8YGL6AOwfqlpzlzy8vNE8GJLetUF2HDMPxoOJUs4AqSUPyv2tSZFsj+zu3iN9g+YPQFWrlaZVndJ6foc8vvesWQYAGG9oIQRiKpVUAaVIv/SPs5A1Ucrpp2nVBisMZtPdsnUTYRBxokNgUhKta6Sz2V4CABh/aCEMwP4hPmqlY+0aWSg9VmgZv5llopTTpsPgsgaRbO9mWkgQU+Y9m+iX3Y9skz6zFAAwftBCCECZLsmE+l/23DgPWROlnHY3UcIgcFb29fSr/zdK65JaexEAYFwhEAIQaZ4nKrtI+sRR+/F4NVHKmVoqK8w9gzsJg4i7Y/vkUFYk0dgkKbMIADB+0GU0APtXXVKpFpm7uF3mNCRFNzJp2bSqsG8P6HqYqpWmxZ3S6lpHsv1yqGef7DvmVdE33aOy3fLodh1a1PpLOqS1tdG1zW61zaOe29QjUS5qa5SGhHPfXEY9v19695e49yx0OfPZg56IHNqyUfaV2fSWau6SFaqsidwGM5LuPSAH93rv23AIXc7Ix8UMhlFwrVjnYboe5CYZWAa7q2imRDld18p+kQ51bS5U27PK171N9klL8bLC1wq7fyqoPrC6TRLqGrSvz0LB3fsiX5/K6Fwv+e8/u7xtqrz2X7Pq2PSq4+hf1mjnvei6VJ81nSvbh46T2u5uz+2G2d4wXC+hBV8PuQGfsqW7cBcdIwDAuDE5VVu7wfwe2pQp18vFi2+bR9WH/asWutJ1n9z7OwtkVqJGasxSrSZRJ/Pbm2Tyyedl4JJZaOgK7O995mNyW8E6UpOUWY23y7zJ/XJ44B2z0EjdJXe31cnl/v1y+PJd8sCfrZTb6pIF25wrs73WVdt7aPl8SdTkPdsq45wFTZK6cEqOnytYR4lUzgI33vkJmZM4JUee6ZNzZpk/Vdldu1Y+epvar/wNSqJursz/8JWSfvEVKTicwyJMOSMfFx2a9HnzuFbmLKiV1BU61ASUQa3/u79TJzXpH8rfPx9U871Jbv/YXElkJ0nqdxbJrWp7FlW+mutq5Xa1bI5r2azr3pKDPxt6vUj7d9OdcndjUuUFdX16XhNOmfqlp/AcRrw+R/V6cd5/2axc9+FPyHL9RYxrmzXq2Oiyer3fg8+72r8r6nzPu/u6nKSCz0MrFuQfp5qMnCxcL/T2KrteonlHBn5RK4saGyVZeD3p8n9mvtTosLtpt7xqFvu5dN1N6nXUuXljn7pOzEIAwLhAIAzA/lUD+xvupbN0RSkj6V3flZ07npIfHtgnBw/0y4XJ10qyTlXA6gsqpVblt9GqqOkWvSc2/c/cOmm1znwd8urqiyuWpsJ9+Zp6uV23hujK0vd2yPefecreXu3tqtKm6mvvnSqorKly/pePySxVcdRlfFyV8aCzvQvXymxVkZrV6LG9qOXM0yLtv6sqmukD8v2SFUhVuV+/Uhp0OXt/KDt/pLb3jN6e+jn5lkyun6tCd51ce2EkKn0hyhn5uKj9+7O7ZZb6TbfU7On+tjp39v6lL9Sq89Co9k//0SMwGSkVDlrr3pVD3T8IOOZKqlkWLVDBMZG0Wuy26jKqbSxS149eVlOwTLInhq6ZiPuX+nCH+luNvHHkKe/z45TpjRflh8NxfY729WLefzpUzUq8m/9+V9tLqe3poFYclobOuzU1yPcKz7t+Pf03r/NeK/Pab5dZl9XffnGn3P/ROvucdDv7qt73FwakLy8sR9heJddLJc5lZPKH1efWnGvlwgEnnDrlV59vXy9zoJhJ6jjp8qt9KvUFFQBgdHEPIapaakmnLLQqVj2y9ZGNsuPYWVe3prPSt3ebPL6l25obbmi5quzoblCKnuvu8bzunWp9tc7W3oz6PSlz5uUPkuBMkZDQXcV6N8ujm3Q3Mafrntre/h7JmkeeVGXpYF5XP7W9Y6qMj2yW3UVdraKXM09qutVdLXu+dI28aZWq3OtKoCrLDt3Vz12ewaOyr9vev0RyBAaPKLuc0Y+LvX9qG6py/fj2/G6Q1nnYpQfH0Kepz/WabrUy16qM98sJ7ycMmW66Cepr0ymjqnxb14d7mTG039H3b9o0fX1mJON3CE2ZfI9xqOtz9K+X3BQlXu93tb0dZnuSmJ53L5tz3kWd90cLpgZxn3fvwYzMQEfSKCuWJ9U52Wyfk9wT1fu+oPtupO1Fvl4qVTgojP6STZdfd4kuMwwCAMY1AiGqWIss0gN76App0P0tqqLorpCllrTboUAFOr+JzweP99sV2WnT7QWGXeHWFfXgkSWLK2tnJWO9YJusWNUiqaKRF1SlsmAHKilnHicEZPzLa2uRRqsW2yjLVm+Qh9d7/Oj706znjoAyyxn5uKSWSqu1or6vNHjQGv8ylD8KqhNe0j2ua9Pso3uZ8zxnm9HPe60pm39YbZprB83i/Qt/fY7F9eIE3kN5X/C4DJ6zA5Sb67zrUBXEczAj80WFSrWS3WWH0EARtxf1ehkWzqAwrR3SsUrfU1jq/lgAwERCIET1cipq6eOhvsV2KpUnj4etUJkKtzVpuve6qXmNVpm8Kmt92zfL7nRGEg0r5X6rAv2gdC5RlW/z90LRy5nPDgFlTPRuRvgcK+WWM+pxyZ0b39Y/p7Id0MIWorXVKaf7tex9zF9mP29ovyOf91ST1V3ZP6w616/3/oW9Pkf/enGVP0RQqfi8O19UBAR0t6jbi3q9DI+hVsKF6qSmVfAlDAJA9SAQono5FbVQXafKrFR6vrbTOpSR8/aCIl6VuiFnVaV7ozy6RVW8e3ULT1IaWlXl26p4F3apq6ScbuZ1AsrsyLVQ7Nogjz4S/DP88+6VW87ox6V00DLdQUu9tlK6dcZpPXO/llfZzfNy+13BeS95LTjXr18LYpjrcyyuF1P+oC+AnC+JXKG40vPuhLJyA3q07UW9XoZLrXS06f2sgHP9DWfLJQBgWBAIgdCGKkd5lRunRaScFhjvJ9gGVcVb39uoK8tbuiWd1RXvTunwbYrx41POPOV3cXSMyP2BJYUvp79yjouHXAtbQGXbVHpL8my99gg0HgGmNO/9cwKa3z6nSl6/Rsjrc9SuF1N+/8Crwttiu4tquHksnWvP67yX+Z4OxWN7I3q9lNbkdBPdpc63etzQtjT0fIJl90QAAIw6AiGqlxlwQd/30mQvKZYq7PJm7pWSRmlsthYUcQ9Uc9BVucm1iPhWNv0qli3Sqe/LMo/y6IEwrK5aSUnm3QYYvZx5yqhEOwYzeqASdTwDJpdONdeWqCiqfV1r3z/2gEerkq+yy1npcfEZgEddJx0rzf1uQZVt55orFYK8Wuu89rHoedH3L6h12pojzgxUU3yMo1yfw3W9lK9U4NUjsy6zEq9XKCkuv01PWWMGgPE870FhMUjI7UW+XgqFf//Zc2qqzzXdTfTYUTmoByxKtMkin+vP20i1XAIAhgOBENVrsE9OmsrzsrVd0pRyVYD0hN6rHpSHV6+UFQUVo74T9gh/DcsflE5VYc3RoUCtc781UE3xwBXB3UEVpwJXcO+QNUiIvi9rrb29vAqynuDap6tW1HJ60ZX2JmfD+ti4X89x7LjVOqArg/evXTr0fEVP+m9tc/mawIqiVdnVNVYlKCj4KaecUY+Ls16idY2qLLdY14uzXw+o68QKWUq41iVvXuGl3GWVnfekLFzsCndqHR0Q9DrptB3gCgNV1OtzOK6XMOz3nz4uOuy4A6x5r+dGZs0fGfP8eXu/G5brzwjrV4ue1L5z7RoTItVx8QpZEVrkomyvkuvFLez7T39RoMvjvj9ycO+B8K2E5rMvb0AcAMC4ManlllvfN7+HVldXL6dODZhH1Yf9qwJ68uSAkQz1XHM7txdXUpxvxb2pynbRCHu11nyHCxP9svsR76HYdeXKqnjv2lA0+ITzN196jrGCYeW18OUspCr0ep448yhHj4DoNTJrc1euYu1FT9egR+j03qRzjMxDPeR+iVEWh4QrZ9Tj4reevk56zzfKslYpcUzNPorP8TPs7eSXw17mvn78r6lI++d77uznn5inr0Hv/Yt6fVZ2vYThHHfdQpuUhM8bXgeb4vsVfa4tLauOfX/S/7yb/fN+XT/ht1fp9WIL9/5LqX2zWo09nudcD+Xtt9lfv88UAMCYo4UQ1W1wjz1HWtrM1+VQFa9D1nxh3hWUvu0bZOuufsm6V8rqybVVxfcRj4phGV3HgloQB/fqwTq65VBBObN6m6qcnpVtJXw5Cx2VHVt6JO1aP6uPTY/PCIjHtpn7xuxWDocOTLu3FM6JV8geqdDalK747g/T0haunFGPi72e2o4+D/r51n7p66RPkmUNKONMz9Aoc32bT7zuOzPL1DaHrh//ayrS/qlzp98HQ/Kfn7s+PdaNen1Wdr2E4RyrA/L4puL3e257nuFFX1v2vuU4+7Vpmzn23selVIuct7Dbq/x6sZX//suFQR3iCsKg5rQSBnbHN5xpUmgdBIDxixbCAOwfAFuIVg6nVTpUCygqYo65hGqpw4hzWoh5LwDAuEYgDMD+AdDCdZHz7uKHYCW7pebJ7xbprOvVHRtjI6+Vka6iADCu0WUUAHQLk9dE63kDtfRLb5mtT337e0Tfy7ZwdVfJLnWwOYPCRFFyQCeMKiugEwYBYMKghTAA+wfERInBh3TYCN3a19wlD7RlpLd7j/RRIx5BpQZTwegZGrhm+AYMAgCMtMmp2toN5vfQpky5Xi5efNs8qj7sHxATl16Rwwf65UJtvSQTNVJjFluDfRz5oez87g/kZ5fMsnKd65PDL74i58Kuh5Bukts/NlcS2X7pUcebwz2W3pHL19XKtUd2yN/v/TnnAgAmCFoIA7B/AAAAAKoZ9xACAAAAQEwRCAEAAAAgpgiEMUZ3UQAAACDeCIQAAAAAEFMEQgAAAACIKQIhAAAAAMQUgRAAAAAAYopACAAAAAAxxcT0AeI0cXvTqg2yrME8ULLZHundtEf6zGMAAAAA1YcWQii1kkyYX41Eok2WrWoxjwAAAABUI1oIA8SphTBPaqk8sLpNEulueXT7UbMQAAAAQLWhhRDFBvvkZFYke/6cWQAAAACgGhEIUSzVJHMSGTl5/KxZAAAAAKAaEQhRbHpSEtl+OTFoHgMAAACoSgRCFGma2yjZ/j4hDwIAAADVjUCIAi3S2CCSzdBdFAAAAKh2BELkS00XPQNFQ1uXNKXsRQAAAACq0+RUbe0G83toU6ZcLxcvvm0eVZ9q3z9Pl16RNy7UyuzbGuW2BR2yqL1D5k3ul8MD75gnAAAAAKgWtBCiQIssamu0WgkddB8FAAAAqhMT0weI48T0Tas2yDJ9D2Fvt+w8flQGGVkGAAAAqFq0EMLFDCjTu1ke30sYBAAAAKodgRBDzIAydBEFAAAA4oFAiCF6QnrJSOaceQwAAACgqhEIkZNKJtV/VSCkqygAAAAQCwRC5EybpgJhNiPnzWMAAAAA1Y1ACMMeUEay54QGQgAAACAeCIQQSbVIx9qVYuXB89xACAAAAMQF8xAGqOb9c+YbzNcvux/ZJn3mEQAAAIDqRgshLNl0j+zeQhgEAAAA4oQWwgDVvn8AAAAA4o0WQgAAAACIKQIhAAAAAMQUgRAAAAAAYopACAAAAAAxRSAEAAAAgJgiEAIAAABATBEIAQAAACCmCIQAAAAAEFMEQgAAAACIKQIhRlCLdK7fIA+vXSopswQAAADA+EEgxIhJLWmXBsnIoe49MmiWAQAAABg/CIQYGamlsqI1KZI+IPtIgwAAAMC4RCBEseYueWBVZd08mxa3SUL6Zff2o2YJAAAAgPGGQIgiTXMbVZg7F72bpwqUyxpEsr37pM8sAgAAADD+EAhRoFaSCRXmzp8zj8OqlY62RvUCPbJz71mzDAAAAMB4RCCMu9RS6Vy1VJqc/qGpJpmjA2HGCXO10rSkSzqaa83jEpo7ZKFaP93DQDIAAADAeDc5VVu7wfwe2pQp18vFi2+bR9Wn2vfPcu1NMm9Bmyxs65BF7U2Sqk/KrJoakStq5fb2Trn7Y7fLnGsy8vqLz8nAJbOOrxbp/ONFktCtg0+/IiWfDgAAAGBM0UIYd4N7ZMemzbI7nVEPktKQSFqLEw2NkkhkJN3bLVs3bStrpFCmmQAAAAAmFgIhlLPSt32jbN3Vbx4r6R7ZumWj7Nh7tLxwxzQTAAAAwIRDIITRIouW68FgMpLNqocJ9RMi2DHNBAAAADDxEAih1ErH2pXSkFWBbtNGebynXwXCNlnUbP5cCtNMAAAAABMSgRDStGqNLNSte5u22YHu2DbZnRZpaCtncnqmmQAAAAAmKgJh3KWWSmvCFQaNvu3dkk40ytwSiTC1pJNpJgAAAIAJalLLLbe+b34Pra6uXk6dGjCPqk+171/lWqRz/UppSHfLo9w7CAAAAEw4tBAistw0E/sJgwAAAMBERCBENEwzAQAAAEx4BEJEwjQTAAAAwMRHIER4TDMBAAAAVAUCIUJimgkAAACgWhAIEQrTTAAAAADVg2knAjDtBAAAAIBqRgshAAAAAMQUgRAAAAAAYopACAAAAAAxRSAEAAAAgJgiEAIAAABATBEIAQAAACCmCIQAAAAAEFMEQgAAAACIKQIhAAAAAMQUgRAAAAAAYopACAAAAAAxRSAEAAAAgJgiEAIAAABATBEIAQAAACCmCIQAAAAAEFMEQgAAAACIKQIhAAAAAMQUgRAAAAAAYopACAAAAAAxRSAEAAAAgJgiEAIAAABATBEIAQAAACCmCIQAAAAAEFMEQgAAAACIKQIhAAAAAMQUgRAAAAAAYopACAAAAAAxRSAEAAAAgJgiEAIAAABATBEIAQAAACCmCIQAAAAAEFMEQgAAAACIKQIhAAAAAMQUgRAAAAAAYopACAAAAAAxRSAEAAAAgJgiEAIAAABATBEIAQAAACCmCIQAAAAAEFMEQgAAAACIqcmp2toN5vfQpky5Xi5efNs8qj7Vvn/la5HO9WtlxYevlPSLr8gls7S0qOuhYqkW6fjkPXL3735C7m7vkEXqZ17tlfLGz+J7HppWPSh/pI7HvNq35PDPBs1SAACAeKOFECWllrRLg2TkUPceCVONLnu95i55eP0G9fOgdKTMMkSXWioPrF4pCxuSkjCLtERDm9y/tkuazOOJKLXkQXWdRNgHdUxa1fHQEonpwmUGAABgIxAimKpIr2hVFen0AdkXKg2Wu16tdLQ1mt+TkpxufkVE6niubLOCYDbdLVsf2SCPmp+tu/ol3b9P+uwnTkC1MrdRXVPZjJw3S8o22Ccns/qXjDoGfaG+2AAAAKhmBEIEalqsw0W/7N5+1CwpT9nrNXfIwkRGDu3qEV1fTyRr7eWIJtUkc3QaVGHwcXXs3cFn8Ng22bH3rHk0EU2XpJV0z0UIdGdl3yYdjDdO8GMAAAAwvAiE8NfcJcsaVP27N2SrUtnrmdbBbL+cOHbOCoSoTGpeo9U6mD4RLsBPCM3zRF1W1blvAAAAY2RSyy23vm9+D62url5OnRowj6pPte9fMBXW1q6RhdIjWzeFuXcwxHr63sHljZLetUF2HNMD0KyUhnS3PBrQqqjvIbu/VeTQlo12V9SUWm9luzQk7PvDdLjc3b1N+go2HHU9SdVK0+JO6/6z3P146rmHevbJvmPuliaz3wn1Oo+o1zFL9fKmZt0P9pz05T2/vP0tTb3OWtd++Cool3WfYZskfLfvvz/W8qyzntq/JR3S2moHUU13Vd1Z0DrpllLHfu7idpnjOqbZdI9ap/B6KXfftIJymmurSLbM67ns8+6o/LgAAACMBVoI4c3qyimS7gkTBpWy11OVfV1hVxX0g8f043OSsfqMBg/4MW2aDgcZyagXtwYYWa1ClTsw6Nq3x4ajrJdSoeKB1WtkWcHgLJJolIXL18gDS8ro3qqOx7LlK2VZW1PeftkD7gxDa1dquiTKCkwFptv7lD1/zn5cxOmeWXC/numSaq2nQ+V6dXxcoUdLNKyUFZ7HRoWkVSqY+w14UzioUJh9KyhnKum9XraM+wcjnfeKjgsAAMDYoYUwQHxbCE3rVbmtKTnlr2e32CVN66Be4tci5Waeo1sfe5JyvwqUVqvL/qMyaG1Mt8ZJQUucFmE9VwtTfstOrSp7hyq7/ltmqMXR2UZe+Z1l6te8Y+IqT6jjW0olx7+AXwuiOS5ZFcBEhbWE1bK6T/oG9bHTgU8HKfVr4XruY6EHdtm1Qw6q4+0cj1xrmm/Zo16Thim37/46Qp93I/JxAQAAGFu0EKLIiE8zoSr3i/QIpNIv/bnK+Vm7hTCQabWSRlmxXIeZzfbAKbmNnfUIg1rY9UzrpaIDRP7gLCrE7N0mW3tVxV+SMmdeQIuP1Wqkwk/aDgnTzOJca9Jwj3apW9T0/8sYdCXXYurbQOjdgui0vFktd72b5dFNKvxaoUdTx3G/PThQodSSzqFgrAd2yYVBTa2njunjW7pViPK5dkLsmxe73AH7a4l+3qMeFwAAgLFGIES+sqeLKBBiPae7pPegM0lJ+vUZdUKBqnRnd9mhoiwh1xsq32bf1qTB4/32qKjT/OfJsEZazarQWzBHgj0Ca0ZOHi+z/OUq2Q3UUWu6g/bLCZ9z1TTXtJJl8stoB0kdmFSoDhitM78MQ18A7A5q3Rs8WnwPp8PsW7Quts50Ff77q1Vy3qMdFwAAgLFHIESeEZ9mwhUOegsqzufP260vvnMROoEnoMLuKeR6TutZZYGtRRpVutCtgPl50F4eOnCXwQ5xZZTbmZrCt7XNBMaiFjVnuW7Z9d6GM8ppXpB0Ann6uE9X4NKcfQtu4fNT3nQV0c97xOMCAAAwDhAIMaR5pKeZUBX7VSutVhjdfXPZ+g3ysOtH39MWpOzAUyDceq4wFJQeilrj8ru82q1NdugdzOiga4zY1Allllsr2ZLoBKjCFjWfgWZcPLuiltxeKSH2zUtZxzzqedciHhcAAIBxgEAIo9bMCdgjO0NN3B1ivdRSabXTYCDvyemjhoIKw4Qns8+Kd4uP6aKY1yKmu8IOHSt7ZNXhVDqUOJz73fxaq1ImQBW1qPktzxmJY62ZfYvYwlje/YPl8DnvY3ZcAAAAKkcghMUZ9CPsNBNh1rO7lSp6pMVHNhT/7Oq3nud9X175gSdf2PWclr5GaWy2FhRxD5DiGeysqTcycmh/QYvU9BEaTEYbpgFlrNFHnVE2C1r0nCDp39Lmc6zPZez77lo7pMleUizV4j/diLNvEeX2N/DARD/vkY8LAADAOEAghGLu61NBLdS9eWHWy7UOBtxnaIKD51yEIQJPngjr9Z2wg2nD8gels9nVWqlCS4eeR8/q2uo/mmqj7qLqMYBJUi3X91kW3js5HJx71MrvipqUhYtdIUxP1L/W7rZrjYqqFLYgluz2aFrKigLvYJ+cNGFr2douaUq5j6meksGeF7LkHH0N7dLhOh96gvuOVUv9Q6bFaZ1rlFbX66eaW1Q5zAMj6nmPfFwAAADGAQIhJDddRGGLVglh1nNaBwPvMxw85z80f9T70KKsd2yb7E7rX5IqHKwZus/RTKhuhYLCeehyGqVB1f6LW0zVa+l1KxhYJUiYe9Sc4CMNK+V+17416FbNLRvkoNWMVfhapbs9+ndFPSv7us20CwkVCle7j6k9AXw2HdDlOBcoVYh1nQ97gvs23xY921k50W8H3ESra93lK6WxsCE60nmv5LgAAACMPQJh3I3CNBPOoDOl7zM8Z3fbc8/ZZ0StVEddr2/7Btm6q1+y7oSazUi6t9uaRy94n93zK+Yb/sFktJD3qFnBxzXQjVrPvV/eXSxLd3sMDKWDe+TxRzZb280L/dl+OWTNCxnU5VgFyk2b5VBemdWqat3dKsCWap0e3LvDc3+9uvuGP+8VHhcAAIAxNqnlllvfN7+HVldXL6dODZhH1afa909rWrVBhTVVsX5kW6iWq6jrAQAAABg/aCGMs1GYZgIAAADA+EUgjK1RmGYCAAAAwLhGIIyp0ZhmAgAAAMD4xj2EAeJwDyEAAACA+KKFEAAAAABiikAIAAAAADFFIAQAAACAmCIQAgAAAEBMEQgBAAAAIKYIhAAAAAAQUwRCAAAAAIgpAiEAAAAAxBSBEAAAAKXNvku+/pWPS7t5CMRB/T33ytcfajCPqtOklltufd/8HlpdXb2cOjVgHlWfat+/CeOaj8iuW1ul3jzMudwrXS/9WE6Yh+WplT+dv1r+4GqRgdd3yvJTx8zy4TG3bp1sm5VQr71FvfZZs3SsOPualb/9yWPyjUtmMQBUm8TnJXXTAvNgyHuvfEYuZs2DsaSD1Jfny0zzMOfMS/KFLz4nE6Km0fpx+frqG2XmmVflsc3PyIHXzHKgyulA+NVPThU5ske6vpk2S6sLLYQYM3OnfUS+NX+d/LT1L3I/uxo/Ip++xjxhJFwzT5aoMKjVz5orn7Z/BQBMYFdeVRS1lMPyi/EQBquBDrQ6DIoKg18kDCJeBp58Qr7w9AWR25bK1+9JmqXVhUCIMVArf9q4TrY1tMriqxNmma0+0SqP3LpOvjXNLNAu/ViW9/6l3JL72Sn7zZ9Cu3Rc9l62fx14/YT8wP4VAEKrv+fj8uet1Vk5mGh++ebnZfCFz5ifh+XSe2rhe2/KL+0/j73XnpPP3feYdOV+9qi4OlEk5d41unXzguz6kgqDZikQJzoUPnZEZOYnPyr3zjYLqwiBEKPMdGNM6CCYlf3pLdKVC3pbZP3rJ2VAErI40Ww/fdidlW+8ZG9vuLuLAoib62XB6lXy9YfuKu7SjjE0SyZfpf53eRwFwgms/p6PyvIZIqefflaeoGUQMXbgm/qLnKmyfE31feYTCDG6prVb9++JnJT1P3lMPnv+rOsewLPyg1PbZflPtsgt/YS1UTP7Lvnzr6yTbd9ZV7VdIYCRMPDks/LYkQsy87b58tXv3Etr4XiRuFN0HnzvwkH7MSrQIPfoe6fOvCTfejJjlgFxlZYnddfRGfPlnlazqEowqEyAOA0qo+/nWztLd+E0CyQrA9mD8gUVzIoHbTGtfOIM6lIrn25cKX+USOS+MRnI9qp1Cwd8GRrQZX/6L1UYNItDa5Zvta6QxSUHlRnanpfyBn6pVcemXb46Kyn1ue6t/sem1KAyn25cJ4/o1tHsTunyOrbXNMufzlokS9zH8vJJ+ZuT2+UHvoPCOGWco8poL9HH/29e/7HIrL9Q2wseVKb9oXWy7jbzwOoS9MSwfgtsv/6r8th9L8gND31Ult+mKhdqO4e3PCF/1ZuUe4uWWavlqW+9S+751HxZMMMsUM89feSwfOub6eLBGJzBG3wHa1Db/MoqWT7Db1+T0n7PHbJi/o0ys3B7O9X2go7N7Aa5d8UCuUPtj3NH0+kzr8rOYR2AwZRf7P3T27xnzQJ1bPQxVM6o4/jUs+o4BlTefMr5wlMvyBM+69k31cvQMfN6jSN7fM5J+dsbjuslnAb58+8sleLhSIod3vKY7/X52dX2gCGnj6iK8zdHfpCQK2sWyVUzV8h/mjpDrjTLfnlht1x8eZt/q1hNvVrnT+Qa1zry3mG5dPr78k7Wq8T1cm3zo3LN5U0y+LIOV2r9G/6LXDNzgWubm9Q2D3pu88pEl3ruHXLVVc4b6Yx6/gtqe9vkvXfNIi+hy5nvyhu+Jgl1Mi797PPyTtB2XK5MfF6m6P3SSdJyRt47vVMuvem9b5Uz112IQWVCfQ661Ld+XD77KffnWbHTT2+Xz3kFPrXuttU3+v89p15++yuPyoKzm2TjTpHfXrFCFtymNnjmsBze/DX5F1lUvKzwM3F2vcxZ8Sdyu3qO+TSzn/vU9+Vfej32cHaX/NcvL5OpR9Q2v+kV/k2ZZhyWZ+/7mpw0Sx3J1i6581N3yE0zhq7PC0dekBd3bpOTJT6vk62fl7s/tUDUJWqckVee3inPP3lQgo5SOK5jqvbPLu8yVV77rxfUsXlRHUf/sqrj+VD+8bxwZLe9fx/6vDy4eqYc/tLni85D8p6vSZf6rM/9bfYi+cSaFUPHSW33Wc/thtneMFwvoTj/7vt9jpeqF7g4dYwqG2Bmcqq2doP5PbQpU66XixffNo+qT7Xvn02Hpj+T/1FbJ/UfMIssNXJ9TaN01jXJVW+9IM/9H7PYcq3cNWOB3Hb1ZfnJW1fIg83/Vf7w19XzzV+162vqpHPalbJfVfpyH47X3ClfnFWnnqcCTv/PJPrbKCUfr2uU+l++Ljvcr1/ElDNvv4a8/b9fkm0X3zGPPKhw9i21b/+9NinXf6DGLNT8j820KXdI55Qaz9fWYfGxWv8wqP/+z3Pmy201BcfyA0n5SO1i+fiktEd57dD7P6wymkWKPv4fqW2Smyap1/qAOk9nC8/hkNl33SF3mM95VeuSk/v6pO+ieTgMnNe/4bdulzt+00nnV8vMmZPlA01LVeXetWxBUs7tfFmGPov1h/R98uDiGTLzOrPIcrVcN+MmWbriZvnAkYLyXv8huXvJDLnunTOy55/fkOJ3cI00L/2wNF7nta+qkvaVT8vy+VPlOq/tLblZbvzAWTl0vLiWqQPT5j9WrztDPdcs0667bqrcseQOWfiBV+VHHuuFZ8o/4z2ZOvsO+f17P6yOjetbD/X7zAUfls7ZF2XHvxaOqKED1XJZr9bxKmejWu/G8y/IodfNQpfrP9wsSxvEOmbv/I7Pvp59Rf4mb5vht1fZ9RJFQlpX3JQLqkHOvOR9bN5+/Q350c5X5QOzZ6rQa1+XN55X18nrw3G+C6mwdPNfyNS6JfJrV1+X183niqvnSM0NC2XS2/8k/7+C97sOPFPn/DepKVhHrpwpvzb1P8tVkw7L5X8veLfUfEyumzlHfnXhf8nl//iYJG5dJzXXzSzY5h3ya17rqu1Nu2mJXHll3lm3ynjV9IVy5S/S8ovLxe/OSOUs8Gup++Sqq9Ny+bV/KSPMLZIpzV+VX5+m9iuXPrXr5Mrr7pCaxAfkF+f65Fdm6fAx153v55RbhM9Bo/2he+WLn1Sfh3nrFfv3f/uZ5+dT+8rfUe/HC/Lj7z1f4t+FZmn5b3fI1LNXSPLeZfLhGWaD6nq5+vp6aVHLbnItm3n9OXn+X0/ZjxUdsH738//NWs/1aWY/d8F/lt/8wGE5drzgKDXdLYsXzJQLL/2v4r9ZTJnOvCgv/HOf5O2d2t4frl4iU/MOjNr2jDnyG0sWSvJ8Wv7tda/XVOHoK1+VRYvVfuUd0+tkasMd0vRbH5BXCrcV1eyPyeJPz5H3zp6Ra+/6A/mdT96uymv+plytjo0u6+Qj/yRvFJ4bHZa/ua7oeOb274oGFWbT8rO/+xcp/Fdi1kfvk98wf5ukwuEf/nHBcbpOhd/C9UJvr7LrJbx3pe+fL8qN6j23YEHx+6X+nuXy4Pyr5fTTP5CvHSpx9i6+Jx/8LfVv2m9OGoZ/f8YPAmGAOATCuXW/L/8jocOOvp/ve7K8/x9l8+sHZPNbF+SqKY0qTNXIbbW18ubr7gDnBC0dVFQw+0BW/late59Zd/97tdKZSIp8oE6mvXdAnnHeW9ffIV/Uy7M98meZc2ZhFOUGwnfkuTNqX/T+uH72T2ryDW1DVBi8c4Us1iHr8kn521f/V27/Nr+eljcnXSs3TZklV/xv1/4pfoHQaTm0pso49q/FLYPTVsk/3zRL/aLOw+v/JF/oe1L+0imvOp63q+NWP0VVBAsC6Kcb/0w+/+v6t/zzt1+dv2lT5sut1idzcCB87exkubHRrmiU9WEYkl3BVxWX6/Q3b38rG/5OVZz1h+mMGeqnYJkKCVe4AoLzIW23Bv1APvf/7JcdO1+QHUcuygcab1LPv1oalxSEggoCYf09vyO/r7enrqvH/voJ+drfqW3p7anK/ovna2TeTPW6ZzwqTq0fl81dOlWrcj7dK9969IfyN9Z6L6j1kjJvwVSZ2TDTt9IWjlN+9ZrquOoWqb/f/L9MWV+Vcx9QoaRB7YOqKBaFu9bFsl5VDnXr3N//9bNqHXM8Xev5hSw7EE6VS9cn5ffb1b5axyj/NV48+7q87d6/CNur5HqJJiuHzLkq9RO8HVXh+Nc+c75nyBwVdhfOniwn/7VUZT8Mu8XuOqtydkbee+UrcvHlrfLvp78vl04flv+YdL0KMQ1y1a8XhBgrnC2wApZu0bvQ93/n1vmFWscKedfNKw6Sv363/PrUmfKrD8yTmpm3y5XvHZaLJzfKxde22turUQFNXWpX/DItl95yV9ZUOW/+b/JrV9plzKoy6tY9a3u/uF4Fuwb147G9qOXMs0iu+Y075MoLu+RiXpm8qDB4x1q5Spfz9P8rF0+p7b2mt6d+3j4nk35dhd2r5sgVv/i+Cq9mlWFTfiCM9Dmoqc+l/0u9//R6u9R6G8x6L56fbF2j1+kRQ+9Tn3NqmfeXVUlZuEK/z87Kj/+uRMV39kK5c8kcFQBmWi122774f8u+8/VypwpsetnVBcvk7ItDFXwrnC2wgsQF9bxd+nk7vy/P7zwsr3zgemlSn51XN8wrCj7JuzrV366TM/u3qvBmFro5ZXr5x7IvL0zUy2+v+2/q3zwVbLZ8Rb73/2xV2zLbO3+93LCgQX0uFW/PCoPfWSs36fWe/n/lR99T5fw7vZ76OXJOJjfeoT6T50jN+e97lycsE3h1qJo54x2rrD9SZbWOjdpeUm1PB7XisKTK+c3fs7/kOrNbnv3rL8szppyvqONv7Z++LLyCsjo2DSv+s7ou1d/eu1u6uhrsc7LZ2Vf1GXD+hJzMC8sRtlfJ9RKZ+qxXn8+d6tpvbJwsLzrvu9l3yf/3j29S/7a/JP/jW+kyPq/flXc+eLP69/Aq9e/vcPybPj7kfQGHmLnmI/JVHVLUm0R3KdT38+VcOibfeGmL/K31j+Ac+aO6WmtxERWW1vc+Jt9wrXvi/HZZb746mn310Hpzr54499fMrVski/UvVrfU7Xn7577XsZxur3lh0LOLa6386aw51m/70+o8nMpvPdTHc3lad3ZJyJKE6zyo8/dH+vR5nL8T6vx9Nnf+SnjtOfmrL9oj3wV3CarM0IAEGfmXly4ULXuzsIet+pD+rL53RVdmvqS7BrrK9lpanvjidtl1Rj+4UVYM872Pp196oaCLZ0YGep+Rz6njVHyMknLvp260frO6MD6Z333LWm/Lq+q3qXLHncNcTt2N65vPucqakQPO8NjKgtsLJtJVZfnCl9Q+WMPGu/fDXk+PoKain9wQMILagtvs7mNdHq9R1J22gu2Fvl7GCet8f2mPdW3qews/O4zX5pU3/IlcY90ct1uyL3xeLmYHXC1gA/Lem1+T7M82ycWfu7uNqtBj5ufTc/Jl87p3qvX1Oqf1G2mG/Kep+cMkOFM5XKm7fJ5+WAaPfU3ee9e5utX2Tu8OboF77wW5lNfFU20vq7b3wsNysag7Z/Ry5qm5wepm+svLpWvkV92swqCoCq4qy0XdNdRdnncPyjs/t/fvyqvGcPiICj4H62fafU3055K7a/ZA73PmM+lG+a3A+6A+KB+yKvIXpGRV/EM32N0EVSDY9k3TbfKNN1WpC5YZF04750eFCRUGtVe2fEa+l/e8Ack8+TXZ9rR93m+6M/88JOyUIRfesB8XMWUa2laBMy/I83ldUdX2er8m37vvYXnWoyvlnIdUGFTXi/7bP+quoe6/v3ZQ/mXzbmt/p84cnuslOdN+/1nH7z61TVXW3LFR2/tHsz2pvUH9KzTELqeiQtXGL+Z3f7X2b4sZ3/bsm3nnxDbLdIO9Q+5ePVOdk4ftc5J7jQE5WdB9N9L2Il8vFVKfz9a/OzOcz2b177czgu7msF39p8qHPmR+rQIEwjirSYr1sZU96HN/2Vn5xut2r/v65DyZa/3mpoKIvrfNPHJ7+d3CTggTSa3cnTRB+WTAPYqXStdIh8KgCs5+9zs6cyOqwLjJL2CeP2FNtZF3Hkqev/HlzOnif3rcy06dtiv9OR8y95sdOezTnz8jTzylKzWq4j3/ZvtYVGjg+VfltPq/Hlb6z+9pkPpyhpaefbPVxVEPuvCk3/1svT+3hpgfrnLaLsgLzxcfU83ZD6n9YNH2cqFtdlLaW++SP3/oXvn6V+61BhWy7yUt8Y/ckT2hvjiIur3Q10vVWyTXWBVgFWCOBdwnqIKM+/68K29YYQ2w8ksV6PwmaNf39VnB52rdS2HIlVdbNUMV0B6W7Jv+VaXi8KUCnP4y6qplMuXmRXKlu8e9RYXJ/GaJisqZ52oTCN8rVbVbpIKl/v8CmfLhf5DUHR4/H142dA/jWBnhz8EZM4fnCwsnvLzy1LaiSr97mfO8C6ft85O8Z4UVJi48/bAKPNaiIpnnXzBBy33e6+WD+vtRFer+zfO4qKByux00nW0NGZC39D/fM5bJ3Q8tkmTR57wKPUWvuUh+w/q8WiAf/fI/yIPf8fjR9zNazx0eTuA9vNl1TN1eMwHKbXaX3K7LaUJVkFde9Pj7bBPUZsyQC1vsEBoo4vaiXi/DwR4p1Pw7r+9JV4fZ+tLE5zryMnB6+Pp9jBcEwhhzWuwG3g1o5no3Y39jop57s7UguhOXzVu8ZppHuBxPpslNOqCpj6SfVxC05k5bZYdBS0ZeNr8VcYLd1a2yzTVJf/7PCrvF0qWs8zeBOd9unz79lvV/T29csIPPjKlSZy2okJ4r7EsvyeEzU2XBJ5fKV79sj766TQUY34DoVNhm6JEmzfOLfsobtGTYeRwXPTCFNarsl1fJutXzZYEe6MUZkKYMgefDQ6Xbm2j0AB5f//JSe5h+PcDMcLW6m5YvufC86Cn2ymWHujPyiwthK1T1al39fz25u/e6V069wzd8vfeyCnYXzqjnrJWEFbi+JlNuUOHQ/L1Q9HLmu2qqfqeVMSF9wh6JdLyr5HPQqbQuWP1xaXd/ds1ukD9fbfdq8PriJQqv1jo7kOUvs593WH5uwp+z3ivPhzzvs++yB1fxbOXSTGAs2L7j5DcflmePnJGpt62VLivgfU0+cY8Kh+bvRVrvtFvBRo1T/tPyVoigkrzzDitUXXjpOZ/j4oQsn5ZVp1U1IKC7Rd1e1OtleKTlr9S/86dVyfW/R/pLzsoHJ5v4CIQYPcMYLse95ErZ1jDHavVb/7qqmeiw1zhScytiWDldaL+0XR57+lUVDlVlS1W0nID49YdUMDRPnXBUWPmqDmXWv8Vq357eI4+p/fyC+tFdhu0unMNotLcXiR7t0R3e/X/+PLB7nR5A5161vzda3Y8Ob7G781YWb1yclq8yukIOcULd6fzukIU8X9vM5RcwubsT4v7Ds2v6gAqFn5fBn6lgePqweo0ZctVMFQ6tYFj4DqqknG7mdcqYkN7pDqu7pw5NaO/9E9Q6Oq453ePkRlnnfLmlf75svqBSFWHfXg2hOK1n7vDiFWjM8868KXZeLzP0eHX99FqWx3R99G1BHFCh8POy8UsqGD59WL1jZ8hNn1Th0AqGxZ/wuRatLZ+RjfcF/3zvyeG4Xkz5jzxfNDpqjtOa5wrFpQN2vfzmfP0c72PuhLJyA3q07UW9XoZP/Z36c9rw6ElTivNFTTUhEELqa6aZ3zw4rVeXA1q4ynXpuOwtdU/iuJKU37jG/BqSNUWFuWfwB6ces++pTKyQb3kdaicoZ3eaCfoDfjy6nQaevyowc+YHzW8enNa5cu5xCes1fZ/bMyocPiGfU+Gl60t7VDhU5bltaf59Yc6383oIav28oJ8yh5evmOdxcVoF9AAT9j2A+n5HfW/fQN79fcNltLc3dqxWwe+ssqbD0K2CX7iv4F6vca1erp1pxYP8lj6nBc13cvcyQ9y75t5GHa5+tknee08Hwz+Ra4u6kZbiU8484SekH9P7A0OI/jlodyq0PqNy9OBXe+QLJaarEHlL3rBu3yvRA8MJJnnhxSPQeASY0urltz9ln3d3t8FSXQmTToteqW29poLhk/q+QRXmvrRJXjmjg+GfyG/73C4wXPcHlmTKH3Tv3JwVdhdVz66fvpyg7BWyorVKBvPY3oheL2XQX1Tq+3LVv9mPmTkFo93rfUHe8GplnaAIhDF2Ittv/2OQWCR/6hl8hgY7Gcgc97+Xrmxn5UcZ873grJU+21T0XHzTygiMI9bSeEyetYqZkD+Y8xH/7q3X1Pr/rWAAmR/077TuAVzcsK54v52g7HsevA2dv7nyaWtJgWucrq8lzB6fE9Pn7oO7bYHc6/mP89BgLqdfenmoYvPaW2KNseBTiam/x75nwEt9a0Dr32tp+SvnXh135ey1l+UFvUHfco4c73v9fI6L48yr8i+eYSUpN5jfhtVoby80dV69wrvHj9fcVXpY/xFrFXQzIefKmf/Fv6tjTWGXTHMvnyyQ/+T0Xi/gHqjmkquGmGtB853c3a8FcZF936B5lOfdg1ZroXpzyuS8z6bo5cxjQmw5rai/fM+OSFd+8C7vsipXJlToNb/7qvTzs0TYivw5qKmKr75Pd5ce2CnvWi4e/MqbM3hT8EBTnq11XoGm6HnmXj513n/Dp/U9ec+fmB4Gu+V51/vPq8uhw5pHzwxUUxyoFskn9H2D5lEePVDLU/b1ObXgszVz2r5eps6/y3tdJdla7/u3sEreO9f6efmo1crm1Z2yuPw2PU+gGQDGM2QFhcUgIbcX+XrxEPr953xR+ao89s20HHjyWXsAsE+uKtEDxC0pvz1fl+xteXPYgvPYIxDG2aUfy984wefWdfItdwjToSw3qftJ+ZuSE7iX58SpbjPypdlmXbMrVOkJ1lfJrltXyB80BARGOS+v5FoaXeurMn86RKAK8oPXe+1/LHVXz/mrCgKqU87Vvt1AiwP0MfmsGSm0OGQ6g/e4jkneftTKp+vU9lpX5Qc/V4vrI6qM7n13jmPhfYde2leYLn2Kvsl6tEONr9eek51Wd6epsvzL96oPa9eHvZ7o3Ewyqz/Yd+bdp2W+1dbdpNzdO2ebLn3WiH0e9Gh+q5fKV79zr90tVD3frd51303+/TzOoA6mnEX3GuqJ7nUL0sel3SwZHlNlwWqzPbMk+LgY1reh7uCbtFu49HpWBWOYjfb2RpH+cmHdaLUKvvuc/MK6eXCBTGn+vFxV4/rqQk/kfvPXJPXhtUXdMd+7YI/wd9VNX5MpKuDkqPB4rVrHqVhfyhuZVIWhwO6gihO+3noufz09OIy+b7DZ3l5eoFLb1JO/e4laTi865F3ltEDqY+N+PUfW3It51TJV1q6h5yt60n9rmzc9Ktf4BFRH9M/Poc+pFQXv4bz7/SJ/Dqrr0+rWNlU+VMHoxgdetD/bgkZI9gov5S47+aJ93m9a/TX5hApUObMXyW8/pCdIt8+798AqM2TBCle40xOof+UfrHVeOWId3LxtadYgNvq+wa/Y28vbK72+aY0s0vu8vKL/P2OZWrdL5rjOUdIp6+pH5c6yQ0Uw+3rXx+Uf5L/m3duoQ9bX5MHcyKz5E+7bI/Hq9T6fX8bWLnVsHjUh0idkRWiRi7K9Sq6XQmHff+0P2d2lD295Rg5YS9S/35v1/YTmXltrWQnOQHJHfm5eozpMarnl1vfN76HV1dXLqVP+J2qiq/b9s9kTm9vBz4s9pUH+KJbOOl5/szmjaw68vkWWF4XJ0tu0pl8IGCslN3pnId3tsv+YeeAtuGwu13xEhapWV0W2UPH+l3rtXLk9yum7Tw49H+LJ7fnHO6iM6vn7350jixP+50lrf8gZ7VGzhzYPM9pWKc7rH94y1MKiJ3HXwazUMvVPgqvC48WnvCpwbDPhrZCeMmHnzFWqTMXr6gFQ7vnU0D8wns6oyr9H10+n/L7OvCq7Nj8zDMd26Jjof4tNvaGA93EJLKMq32Mviaz75I0F58DmrGtNdVHmQClRtlfZ9TK66lXQv+f0C2r7IxgE3Wq6JBEw8uUvL+yWiy8XB6arbv4HmeJ7aaqQVTQFhD3f4TVXHZaLL3zNcxCbK2+wQ5q+B69wVFDnb74ubCqYVsIWvpyFzLyC5lGOnqbDa2TWxOclZaa68KLnQrzoUU63Sj4/fd8fuvv5N4dm/o38OTj7Lvn6l/WQ+v70HKEvPPVC3rQU+fQ9tqoS7fO5p8156B9UxV+FNtdUDfayw/LsfU5gqZffVgFhwQz3Mpv9XPOgSP7r5rR+PheK8tnP/7c7dZhUnyMe61otiFbQ9KHnwCuY9sDiu02bnq/vR17rhWaOldoXfW+j1WrnQQ/8Uny/ogq1eq5E8yjPGXXsX5opH/U5Ls7+eb+un/Dbq/R6cQv1/nPqBUXvL9d70eNvhcbDvz0jgRbC2Dsr33jpL6Ur3Sv7874JzsqACi1deo5BnyARnXub7pqE3mavrLfm1DOLfJw49Zh0vX4y/x8nHZiywzji5qUfy/LeLbJeb2eYjk2uhdS6nzC/W6zep1t+slPtg3p9s8yijtH+19X29HyIhdvTZTTrDBl6/qYypv84sFOPqmn/PjTP23iRkSe++Jh8YctQGW0X5LT64NatMp7l1fPfbXnVCkw5OoDorlMqzPhNWaDn59IDytjby3+Orjjpe+H8KkUDTz5h3We464i5p9ChXse6X+eLwxEG3S7IC5t1WfP3U7dWPebzj6Iuo9dxce7xO5BX8MqN9vZG24C+x3S0wqD27jZ7Dr8LZ/JDynuH5ZKeGsIjDGrvvfwZyb5yWH7pTnbv6cnYVTB7wStkVTagzC/f1IPJbJJLBeX8pd6mVU7vkBW+nIUOysWf7Zb3XOv/Uh+b0/mtmDnZr5n7GvM+XOxg/bPCuRC9VfL5ab0/njZdQh36/fFi4YiiET8HX3tZdqrPoyAzZ9woy1cHdZdLy5OB91l53XdmluV1PfTvjnjym5+RbVsOi7pchpzRk7+rYHafR3DRer9mjRI6JP/59hcS3vfCZZ7Ug8lsksNqfffRuaC3ueVh7zCoqW3a9xnmXy8XjuyWZ79UOIdiJcyxOrtTvvdFezTUvHI62/MMbQflH82+5Tj79cWvmWPvfVzKaZErFnZ7lV8vbmW///SXI66uooX0e9EagOm2pSW6njbIPTo4Bk0zNUHRQhggHi2EACYWp7UgXGsEgDgxnxPi37Knn9P+kO4toSvTQS3/fOaMqtld8l+/vEwkVEsdRoPdIlmd7wNaCAEAAKqJuc/Jc2CpHP/eEvmc+6z0fYzDfS90ddLdUj0nr/f8+bzYw/fZcnP7hWqpw0jTXUXtL0/GW0+q4UEgBIAxoP9xyc0LVvKHShiA8PRAG3ogmsL7zPUgWUODbPkMQOX22nPyOd39Ww/W9RU+j0oJvIe2BHtd7xFUMTbc9xiWew/9REOX0QB0GQUwUnL/wJTlVXnsPmdUNLpvASgtf8ANH/qexTCDXel7sdZMlZ1qnQN89oyA8gZTwejS/15/duZh+VyJAWcmMgJhAAIhgPGHQAigPPbIyTfKjBlm8nrDGV1UzxFKLWc8MaN2ntkt277oNdUGMDIIhAEIhAAAAACqGfcQAgAAAEBMEQgBAAAAIKYIhAHoLgoAAACgmhEIAQAAACCmCIQAAAAAEFMEQgAAAACIKQIhAAAAAMQUgRAAAAAAYoqJ6Utof2idrLvNPJALcvrM27Jz8zNy4DWzCAAAAAAmKFoIQ5kqM2fcKOu+/HFpN0sAAAAAYKKihTCM2Q1y75qlsnzGBdn1pSfkCVoJAQAAAExgtBCG8Vpa/uWlC+YBAAAAAExsBMKQBk6/bX4DAAAAgImNQBhS/czrzW8AAAAAMLERCCN5W97k/kEAAAAAExyBEAAAAABiikAYyY2y7it3Sfts8xAAAAAAJiCmnQgtKe0PfVRW3DZVZpolp5/eLp97MmMeAQAAAMDEQAthRE4YBAAAAICJihbCsFo/LttW3yhy5lV5bPMLcuA1WgYBAAAATEy0EIZkTztxQXZtfoYwCAAAAGBCIxBGwrQTAAAAACY+AmEk18sNjDAKAAAAYIIjEAIAAABATBEIQxo4/bb5DQAAAAAmNgJhSPagMgAAAAAw8REIw5jdIPd8cqp5AAAAAAATG/MQltD+0DpZd5t54Djzknzhi89JzGZgBAAAAFBlaCEM5YKcPvKSPLaZMAgAAABg4qOFEAAAAABiihZCAAAAAIgpAiEAAAAAxBSBEAAAAABiqqJAyP2DAAAAADBx0UIIAAAAADFFIAQAAACAmCIQAgAAAEBMEQgBAAAAIKYIhAAAAAAQUwRCAAAAAIgpAiEAAAAAxBSBEAAAAABiikAIAAAAADFFIAQAAACAmCIQAgAAAEBMEQgBAAAAIKYIhAAAAAAQUwRCAAAAAIgpAiEAAAAAxBSBEAAAAABiikAIAAAAADFFIAQAAACAmCIQAgAAAEBMEQgBAAAAIKYIhAAAAAAQUwRCAAAAAIgpAiEAAAAAxBSBEAAAAABiikAIAAAAADFFIAQAAACAmCIQAgAAAEBMEQgBAAAAIKYIhAAAAAAQUwRCAAAAAIgpAiEAAAAAxBSBEAAAAABiikAIAAAAADFFIAQAAACAmCIQAgAAAEBMEQgBAAAAIKYIhAAAAAAQUwRCAAAAAIgpAiEAAAAAxBSBEAAAAABiikAIAAAAADFFIAQAAACAmCIQAgAAAEBMEQgBAAAAIKYIhAAAAAAQUwRCAAAAAIgpAiEAAAAAxBSBEAAAAABiikAIAAAAADFFIAQAAACAmCIQAgAAAEBMEQgBAAAAIKYIhAAAAAAQUwRCAAAAAIgpAiEAAAAAxBSBEAAAAABiikAIAAAAADFFIAQAAACAmCIQAgAAAEBMEQgBAAAAIKYIhAAAAAAQUwRCAAAAAIgpAiEAAAAAxBSBEAAAAABiikAIAAAAADFFIAQAAACAmCIQAgAAAEBMTWq55db3ze+RtD+0TtbdZh7IBTl95m3ZufkZOfCaWQQAAAAAGJeGuYVwqsyccaOs+/LHpd0sAQAAAACMTxW3EOaZ3SD3rlkqy2dckF1fekKeoJUQAAAAAMat4W0hfC0t//LSBfMAAAAAADCeDfugMgOn3za/AQAAAADGs2EPhPUzrze/AQAAAADGsxGaduJteZP7BwEAAABgXBuhQAgAAAAAGO9GKBDeKOu+cpe0zzYPAQAAAADjjMj/H90RUHIT24gVAAAAAElFTkSuQmCC;" vertex="1" parent="1">
          <mxGeometry x="320" y="60" width="900" height="728" as="geometry" />
        </mxCell>
      </root>
    </mxGraphModel>
  </diagram>
</mxfile>
